<svg id="Camada_1" data-name="Camada 1" xmlns="http://www.w3.org/2000/svg" viewBox="0 0 235.98 98.98"><defs><style>.cls-1{fill:#fff;}.cls-2{fill:#98a7b9;}.cls-3{fill:#9cabbb;}.cls-4{fill:#9aa9ba;}.cls-5{fill:#99a7b8;}.cls-6{fill:#6a7584;}.cls-7{fill:#c1d0e5;}.cls-8{fill:#8a95a4;}.cls-9{fill:#b4bdca;}.cls-10{fill:#7a8898;}.cls-11{fill:#93a1b2;}.cls-12{fill:#7b899a;}.cls-13{fill:#a5b1be;}.cls-14{fill:#8e9eae;}.cls-15{fill:#8e9dae;}.cls-16{fill:#8693a3;}.cls-17{fill:#b9c8de;}.cls-18{fill:#b6c7dc;}.cls-19{fill:#bacade;}.cls-20{fill:#434c56;}.cls-21{fill:#444a55;}.cls-22{fill:#a8b9ce;}.cls-23{fill:#384048;}</style></defs><path class="cls-1" d="M415.49,373.56c0-2.14-.42-2.56-2.57-2.55q-57.71.12-115.42.06T182.08,371c-2.15,0-2.57.41-2.57,2.55q.13,46.94,0,93.88c0,2.14.42,2.56,2.56,2.55q115.43-.11,230.85,0c2.15,0,2.57-.41,2.57-2.55Q415.35,420.51,415.49,373.56Zm-4.48,92c-3.72,1.31-7.43,2.53-11.54,2.48-13.32-.17-26.63,0-40,0l-5,.63c-4.8.06-9.61.18-14.41.18q-27.37,0-54.75,0c-1.65,0-3.3-.17-4.94-.26l-2.91-.09c-3.29.11-6.58.34-9.87.33-10.72-.06-21.45-.2-32.18-.31-4.95.1-9.91.25-14.87.29q-9.54.06-19.1,0c-1.64,0-3.28-.18-4.93-.28l-4.06-.43-5-.09c-2.82-.71-6.38-.56-5.86-5.1-1.78-1.4-1.1-2.86-.09-4.3A11,11,0,0,1,190,454c8.16-.79,16.33-1.47,24.5-2.2.32,0,.65-.11,1-.16-.29-4.19-.72-8.36-.81-12.55a17.72,17.72,0,0,1,2-9.12c.34-1.31.69-2.62,1-3.93-.51-.69-.88-1.76-1.55-2-3.14-1.15-6.35-2.08-9.54-3.09-3.35-.47-3.41-.52-1.65-2.71,5-6.19,8-13.11,7.69-21.21q.08-9.5.13-19a11.32,11.32,0,0,1,.26-2.88c.68-1.92,2-2.61,3.84-1.32,3.37,2.36,6.94,4.52,10,7.27,2.53,2.29,4.58,3.54,8.3,2.43,3-.91,6.62-.57,9.83,0,1.89.32,2.51-.24,3.64-1.38a93.9,93.9,0,0,1,9.51-8.67c3.34-2.54,4.76-1.71,5.48,2.44a148.19,148.19,0,0,1,2.1,21.66c.09,3.14,1.48,6.35,2.76,9.33a68.86,68.86,0,0,0,5.89,11.34c1.64,2.45.49,2.66-1.35,3.12-.24.07-.39.49-.58.75l4.4,3.75c1.73.47,3.5.83,5.18,1.42A30.2,30.2,0,0,0,292.55,429c6.94-.13,13.89-.08,20.83,0a13.38,13.38,0,0,1,3.13.81h5.76l1.22-.81c6.82-2.11,13.57-2,19.35,2.41,2.46,1.88,4,5.15,5.51,8,1.66,3.18,2.8,6.62,4.16,10l3.94.58c5.2.78,10.44,1.37,15.6,2.39,10.16,2,20.27,4.3,30.42,6.4,2.73.57,5.58.68,8.26,1.43,1.28.35,2.28,1.69,3.4,2.59C413.1,463.75,412.22,465.15,411,465.58Z" transform="translate(-179.51 -371.01)"/><path class="cls-2" d="M196.6,468.51l-4.06-.43c-1.63-1.9-3.29-1.72-5-.09-2.82-.71-6.38-.56-5.86-5.1,2.05-2.09,4.08-4.43,7.1-4.84,6.33-.87,12.7-1.45,19.05-2.09,3-.31,6.06-.54,8.79-2.08a14.14,14.14,0,0,0,3.18,1c4,.29,4.4-.7,2.79-4.48a22.79,22.79,0,0,1-1.93-7.87c-.13-3.19.61-6.43,1-9.64,2.45,1.66,5,3.22,7.34,5,7.28,5.46,15.76,5.65,22.2-.22a42.21,42.21,0,0,1,24.31-10.73c.21.59.3,1.59.66,1.7,5.41,1.64,10.8,3.4,16.57,3.36,6.59-.06,13.18,0,19.78,0-.72,1.78-1.06,3.87-2.23,5.28-4.81,5.84-5.11,12.66-4.79,19.68-3.43.78-6.81,1.68-10.33,2.23-4.2.65-8.78.27-12.63,2.75l-1,1h0l-2,1h0c-3.54.27-1.38,3-2,4.55-3.29.11-6.58.34-9.87.33-10.72-.06-21.45-.2-32.18-.31-.66-.52-1.32-1.5-2-1.5q-17.46-.15-34.91,0C197.93,467,197.27,468,196.6,468.51Z" transform="translate(-179.51 -371.01)"/><path class="cls-3" d="M282.52,461.94c3.85-2.48,8.43-2.1,12.63-2.75,3.52-.55,6.9-1.45,10.33-2.23l1.8.28a25.86,25.86,0,0,0,.2-2.91A25.69,25.69,0,0,1,311,439.89c1.52-2.62,3-5.29,4.45-7.93l1-2.12h5.76l1.22-.81c6.82-2.11,13.57-2,19.35,2.41,2.46,1.88,4,5.15,5.51,8,1.66,3.18,2.8,6.62,4.16,10a13.9,13.9,0,0,0,.06,3.42,59.19,59.19,0,0,1,2,15.83c-4.8.06-9.61.18-14.41.18q-27.37,0-54.75,0c-1.65,0-3.3-.17-4.94-.26l-.94-4.64h0l2-1h0Z" transform="translate(-179.51 -371.01)"/><path class="cls-4" d="M274.32,418.22a68.86,68.86,0,0,1-5.89-11.34c-1.28-3-2.67-6.19-2.76-9.33a148.19,148.19,0,0,0-2.1-21.66c-.72-4.15-2.14-5-5.48-2.44a93.9,93.9,0,0,0-9.51,8.67c-1.13,1.14-1.75,1.7-3.64,1.38-3.21-.53-6.8-.87-9.83,0-3.72,1.11-5.77-.14-8.3-2.43-3-2.75-6.61-4.91-10-7.27-1.82-1.29-3.16-.6-3.84,1.32a11.32,11.32,0,0,0-.26,2.88h.82c5.47-.49,8.36,3.74,12,6.57,1,.75.52,1.28-.48,1.61-.45.15-.82.55-1.27.73a19.06,19.06,0,0,0-10.26,9.09c-.31.33-.63.65-1,1,.29,8.1-2.67,15-7.69,21.21-1.76,2.19-1.7,2.24,1.65,2.71,1.38-1.81,3.35-.57,5-.94a35.3,35.3,0,0,1,4.72-1c4.27-.29,8.43-.92,12.24-3l1,0c1.69-3.74,3.12-7.62,5.13-11.17,2.19-3.89,9.39-3.7,11.78,0,.68,1.06,1.43,2.08,2.14,3.11,0-.13,0-.26,0-.39h0l-.06-.8c0-.22,0-.45,0-.67V406l0-.32c0-.13,0-.26,0-.39.29-2.22,1.25-3.22,3-3.22h.18c1.92.09,3.88,2.24,3.55,3.88a3,3,0,0,1-.19.6l-.12.25a3.52,3.52,0,0,1-1.34,1.37,2.21,2.21,0,0,1-.34.18l-.3.12a4.51,4.51,0,0,1-2.64.21,3.71,3.71,0,0,1-.77-.27,1.58,1.58,0,0,1-.35-.16l-.35-.17h0l-.27-.13h0l2.88,9c5.88,1.36,11.74,2.81,17.81,3.17.42,0,.78,1.17,1.16,1.79l1.93.18c.19-.26.34-.68.58-.75C274.81,420.88,276,420.67,274.32,418.22Zm-46.42-9.31a3.85,3.85,0,0,1-3.3-3.67,2.91,2.91,0,0,1,3.06-3.14c1.64-.05,3.68,1.76,3.75,3.27A4.14,4.14,0,0,1,227.9,408.91ZM263.53,388c0,.34,0,.67,0,1l-.15,3.46a12.77,12.77,0,0,0-2.34-2.31,47.07,47.07,0,0,0-7.74-4c-1.77-.64-2.4-1.66-1.34-2.74a72.57,72.57,0,0,1,8.21-7c1-.78,2.17-.22,2.35,1.41.36,3.41.81,6.82,1.23,10.22Z" transform="translate(-179.51 -371.01)"/><path class="cls-5" d="M356.45,450c5.2.78,10.44,1.37,15.6,2.39,10.16,2,20.27,4.3,30.42,6.4,2.73.57,5.58.68,8.26,1.43,1.28.35,2.28,1.69,3.4,2.59-1,.95-1.91,2.35-3.12,2.78-3.72,1.31-7.43,2.53-11.54,2.48-13.32-.17-26.63,0-40,0-.29-2.23-.49-4.48-.88-6.7C358,457.54,357.18,453.77,356.45,450Z" transform="translate(-179.51 -371.01)"/><path class="cls-6" d="M276.79,425.84l-1.3,1.1a42.21,42.21,0,0,0-24.31,10.73c-6.44,5.87-14.92,5.68-22.2.22-2.37-1.77-4.89-3.33-7.34-5a3.39,3.39,0,0,1-.16-.83l2.1-3.28,2,.29c2.3,1.78,4.44,3.86,6.94,5.29,5.56,3.16,13.61,2,18.41-2.25l3.62-3.21c4.82-3.44,9.93-6.24,15.93-7l1.93.18Z" transform="translate(-179.51 -371.01)"/><path class="cls-7" d="M221.48,432.07a3.39,3.39,0,0,0,.16.83c-.36,3.21-1.1,6.45-1,9.64a22.79,22.79,0,0,0,1.93,7.87c1.61,3.78,1.2,4.77-2.79,4.48a14.14,14.14,0,0,1-3.18-1l-1.19-2.23c-.29-4.19-.72-8.36-.81-12.55a17.72,17.72,0,0,1,2-9.12Z" transform="translate(-179.51 -371.01)"/><path class="cls-8" d="M215.44,451.65l1.19,2.23c-2.73,1.54-5.76,1.77-8.79,2.08-6.35.64-12.72,1.22-19.05,2.09-3,.41-5,2.75-7.1,4.84-1.78-1.4-1.1-2.86-.09-4.3A11,11,0,0,1,190,454c8.16-.79,16.33-1.47,24.5-2.2C214.79,451.78,215.12,451.7,215.44,451.65Z" transform="translate(-179.51 -371.01)"/><path class="cls-9" d="M275.49,426.94l1.3-1.1c1.73.47,3.5.83,5.18,1.42A30.2,30.2,0,0,0,292.55,429c6.94-.13,13.89-.08,20.83,0a13.38,13.38,0,0,1,3.13.81l-1,2.12-3,0c-6.6,0-13.19-.06-19.78,0-5.77,0-11.16-1.72-16.57-3.36C275.79,428.53,275.7,427.53,275.49,426.94Z" transform="translate(-179.51 -371.01)"/><path class="cls-10" d="M356.45,450c.73,3.78,1.52,7.55,2.19,11.34.39,2.22.59,4.47.88,6.7l-5,.63a59.19,59.19,0,0,0-2-15.83,13.9,13.9,0,0,1-.06-3.42Z" transform="translate(-179.51 -371.01)"/><path class="cls-11" d="M196.6,468.51c.67-.53,1.33-1.5,2-1.5q17.46-.15,34.91,0c.67,0,1.33,1,2,1.5-4.95.1-9.91.25-14.87.29q-9.54.06-19.1,0C199.89,468.78,198.25,468.61,196.6,468.51Z" transform="translate(-179.51 -371.01)"/><path class="cls-12" d="M223.58,428.79l-2.1,3.28L216.62,430c.34-1.31.69-2.62,1-3.93A5.16,5.16,0,0,1,223.58,428.79Z" transform="translate(-179.51 -371.01)"/><path class="cls-13" d="M212.73,378h.82v18l-1,1Z" transform="translate(-179.51 -371.01)"/><path class="cls-14" d="M279.52,463.94l.94,4.64-2.91-.09C278.14,466.94,276,464.21,279.52,463.94Z" transform="translate(-179.51 -371.01)"/><path class="cls-11" d="M187.55,468c1.7-1.63,3.36-1.81,5,.09Z" transform="translate(-179.51 -371.01)"/><path class="cls-9" d="M323.49,429l-1.22.81Z" transform="translate(-179.51 -371.01)"/><path class="cls-15" d="M312.5,432l3,0c-1.48,2.64-2.93,5.31-4.45,7.93a25.69,25.69,0,0,0-3.55,14.44,25.86,25.86,0,0,1-.2,2.91l-1.8-.28c-.32-7,0-13.84,4.79-19.68C311.44,435.87,311.78,433.78,312.5,432Z" transform="translate(-179.51 -371.01)"/><path class="cls-14" d="M281.51,462.94l-2,1Z" transform="translate(-179.51 -371.01)"/><path class="cls-14" d="M282.52,461.94l-1,1Z" transform="translate(-179.51 -371.01)"/><path class="cls-16" d="M251.49,417l-2.88-9h0c-.71-1-1.46-2.05-2.14-3.11-2.39-3.73-9.59-3.92-11.78,0-2,3.55-3.44,7.43-5.13,11.17-.3,1.54,1,3.79-1.9,4.16,0,.61,0,1.22,0,1.83.23.5.78,1.14.64,1.49-.82,1.91-1.81,3.75-2.73,5.62,2.3,1.78,4.44,3.86,6.94,5.29,5.56,3.16,13.61,2,18.41-2.25l3.62-3.21Q253,422.93,251.49,417Zm-6.88,8.79c-.5.62-1.13,1.17-1.62,1.71-.1.1-.2.21-.3.3a1.14,1.14,0,0,1-.17.15l-.27.22a3.42,3.42,0,0,1-.74.47,2.26,2.26,0,0,1-.39.18l-.07,0a1.08,1.08,0,0,1-.29.09l-.11,0a1.42,1.42,0,0,1-.36.05h-.16a2.81,2.81,0,0,1-1.53-.4l-.24-.13-.25-.17c-.46-.34-1-.65-1.5-1a2.47,2.47,0,0,1-.27-.21,2.7,2.7,0,0,1-.87-.95.3.3,0,0,1,0-.1,1.23,1.23,0,0,1-.12-.26,6.49,6.49,0,0,1-.35-1.08.19.19,0,0,1,0-.08,7.27,7.27,0,0,1-.18-1.73v-.07c0-.12,0-.23,0-.34h0a3.54,3.54,0,0,1,.05-.48.51.51,0,0,1,.22-.26h0a12.31,12.31,0,0,1,2.73-.74,9.34,9.34,0,0,1,2,0v0c.33,0,.67,0,1,0a7.18,7.18,0,0,0,.8,0h.07a4.62,4.62,0,0,1,2.71.43,1.57,1.57,0,0,1,.32.24,2.18,2.18,0,0,1,.3.38h0a3.22,3.22,0,0,1,.2.37,3.9,3.9,0,0,1,.19.5.09.09,0,0,1,0,0A3,3,0,0,1,244.61,425.74Z" transform="translate(-179.51 -371.01)"/><path class="cls-17" d="M213.55,396.05v-18c5.47-.49,8.36,3.74,12,6.57,1,.75.52,1.28-.48,1.61-.45.15-.82.55-1.27.73A19.06,19.06,0,0,0,213.55,396.05Z" transform="translate(-179.51 -371.01)"/><path class="cls-18" d="M263.53,388c0,.34,0,.67,0,1l-.15,3.46a12.77,12.77,0,0,0-2.34-2.31,47.07,47.07,0,0,0-7.74-4c-1.77-.64-2.4-1.66-1.34-2.74a72.57,72.57,0,0,1,8.21-7c1-.78,2.17-.22,2.35,1.41.36,3.41.81,6.82,1.23,10.22Z" transform="translate(-179.51 -371.01)"/><path class="cls-19" d="M254.53,428.91l-3-12c5.88,1.36,11.74,2.81,17.81,3.17.42,0,.78,1.17,1.16,1.79C264.46,422.67,259.35,425.47,254.53,428.91Z" transform="translate(-179.51 -371.01)"/><path class="cls-20" d="M248.69,407.9a.78.78,0,0,1-.09-.34c-.28-2.25.23-5.6,3.16-5.48,1.92.09,3.88,2.24,3.55,3.88-.59,2.82-4.11,3.38-6.32,2.18A.86.86,0,0,1,248.69,407.9Z" transform="translate(-179.51 -371.01)"/><path class="cls-21" d="M231.41,405.37a4.14,4.14,0,0,1-3.51,3.54,3.85,3.85,0,0,1-3.3-3.67,2.91,2.91,0,0,1,3.06-3.14C229.3,402.05,231.34,403.86,231.41,405.37Z" transform="translate(-179.51 -371.01)"/><path class="cls-22" d="M229.35,420.53a7.74,7.74,0,0,1-.34,1.91,8,8,0,0,1-.76,1.71c-.26.45-.64.81-.86,1.26-.59,1.23-1.23,2.44-1.83,3.67l-2-.29a5.16,5.16,0,0,0-5.93-2.74c-.51-.69-.88-1.76-1.55-2-3.14-1.15-6.35-2.08-9.54-3.09,1.38-1.81,3.35-.57,5-.94a35.3,35.3,0,0,1,4.72-1c4.27-.29,8.43-.92,12.24-3l1,0c-.19,0,0,2,0,2.22,0,.61-.2,1.14-.19,1.77C229.37,420.16,229.36,420.35,229.35,420.53Z" transform="translate(-179.51 -371.01)"/><path class="cls-23" d="M239.77,420.85c1,0,1.91.07,2.87.13a3.81,3.81,0,0,1,1.71.37,2.65,2.65,0,0,1,1,3.09,7.22,7.22,0,0,1-2.05,2.8,5,5,0,0,1-3,1.71,5.15,5.15,0,0,1-3.08-1.24,6.3,6.3,0,0,1-1.54-1.32,6.05,6.05,0,0,1-.9-3.36c-.11-1.81,1-1.95,2.59-2.1C238.17,420.86,239,420.84,239.77,420.85Z" transform="translate(-179.51 -371.01)"/></svg>