<svg width="126" height="49" viewBox="0 0 126 49" fill="none" xmlns="http://www.w3.org/2000/svg">
<path d="M58.9365 12.7785V9.77031C58.9365 6.56126 61.2737 4.42822 64.77 4.42822C66.5238 4.42822 68.3755 5.01547 69.2769 6.4779C69.4636 6.82358 69.4938 7.23335 69.3599 7.603C69.2259 7.97267 68.9408 8.26666 68.5769 8.41012C67.959 8.6841 67.2388 8.56519 66.7402 8.10706C65.9875 7.38526 65.2216 7.19965 64.77 7.19965C63.1517 7.19965 62.0659 8.29266 62.0659 9.93889V12.6099C62.0659 14.258 63.1517 15.3491 64.7869 15.3491C65.5774 15.3463 66.3273 14.9963 66.8399 14.3906C67.2577 13.9378 67.858 13.737 68.6257 14.0553C69.5949 14.4588 69.6946 15.3321 69.5102 15.7185C68.7105 17.3988 66.7911 18.1225 64.7869 18.1225C61.2737 18.1225 58.9365 15.9875 58.9365 12.7785Z" fill="#003368"/>
<path fill-rule="evenodd" clip-rule="evenodd" d="M70.4702 12.4052V13.9206C70.4702 16.4477 72.3388 18.1223 75.1106 18.1223C77.8822 18.1223 79.7341 16.4421 79.7341 13.9206V12.4052C79.7341 9.88383 77.8974 8.20349 75.1106 8.20349C72.3237 8.20349 70.4702 9.88383 70.4702 12.4052ZM76.7285 12.4923V13.8373C76.7285 14.8451 76.0947 15.5176 75.1105 15.5176C74.1263 15.5176 73.4752 14.8451 73.4752 13.8373V12.4923C73.4752 11.4845 74.1414 10.812 75.1105 10.812C76.0796 10.812 76.7285 11.4845 76.7285 12.4923Z" fill="#003368"/>
<path d="M89.6998 11.7876V16.5765C89.6998 17.5673 89.1823 18.1222 88.1943 18.1222C87.2064 18.1222 86.6889 17.5673 86.6889 16.5765V12.2915C86.6889 11.4011 86.1242 10.812 85.2868 10.812C84.4493 10.812 83.8854 11.4011 83.8854 12.2915V16.5765C83.8854 17.5673 83.3679 18.1222 82.38 18.1222C81.392 18.1222 80.8745 17.5673 80.8745 16.5765V9.75687C80.8745 8.76612 81.3601 8.21107 82.2439 8.21107C83.0123 8.21107 83.4789 8.61456 83.6126 9.34768C84.289 8.59674 85.2587 8.18149 86.2656 8.21107C88.3296 8.20728 89.6998 9.62802 89.6998 11.7876Z" fill="#003368"/>
<path fill-rule="evenodd" clip-rule="evenodd" d="M99.8143 12.8961V12.3411C99.8143 9.85566 98.017 8.21521 95.3131 8.21521C92.6092 8.21521 90.8066 9.86326 90.8066 12.3487V13.9967C90.8066 16.4821 92.6427 18.1302 95.3808 18.1302C96.909 18.1302 98.527 17.6244 99.144 16.6507C99.4625 16.1393 99.2459 15.266 98.1774 14.9458C97.7222 14.7862 97.2168 14.8894 96.8596 15.2148C96.2768 15.6846 95.7759 15.8532 95.3755 15.8532C94.4567 15.8532 93.8229 15.1655 93.8062 14.1066H98.6136C99.3812 14.1066 99.8143 13.669 99.8143 12.8961ZM95.3116 10.4789C96.1658 10.4789 96.7487 11.1173 96.8171 12.091H93.8062C93.8738 11.1154 94.4567 10.4789 95.3116 10.4789Z" fill="#003368"/>
<path d="M100.599 13.9036V12.426C100.599 9.88761 102.469 8.20728 105.256 8.20728C106.607 8.20728 108.079 8.52742 108.694 9.78718C108.832 10.102 108.83 10.4606 108.69 10.7743C108.55 11.088 108.285 11.3274 107.961 11.4334C107.176 11.6853 106.658 11.4845 106.391 11.2439C106.092 10.9456 105.682 10.7868 105.262 10.8063C104.278 10.8063 103.61 11.4788 103.61 12.4866V13.8316C103.61 14.8394 104.278 15.5119 105.279 15.5119C105.742 15.5081 106.186 15.321 106.513 14.9909C106.764 14.756 107.232 14.5041 108 14.756C108.324 14.8472 108.599 15.0655 108.762 15.3622C108.925 15.6588 108.963 16.0089 108.867 16.334C108.535 17.6449 106.764 18.1166 105.279 18.1166C102.469 18.1223 100.599 16.4477 100.599 13.9036Z" fill="#003368"/>
<path d="M116.039 16.7774C116.039 17.5352 115.606 17.9538 114.838 17.9538H114.304C112.317 17.9538 110.997 16.8172 110.997 15.0971V10.7288H110.7C109.933 10.7288 109.498 10.3082 109.498 9.55241C109.498 8.79657 109.933 8.37599 110.7 8.37599H111.076V7.23939C111.076 6.24865 111.594 5.6936 112.546 5.6936C113.498 5.6936 114.014 6.24865 114.014 7.23939V8.37599H115.015C115.783 8.37599 116.218 8.79657 116.218 9.55241C116.218 10.3082 115.783 10.7288 115.015 10.7288H114.014V14.9323C113.998 15.1091 114.058 15.2842 114.18 15.4129C114.302 15.5416 114.472 15.6115 114.648 15.6048H114.84C115.606 15.601 116.039 16.0216 116.039 16.7774Z" fill="#003368"/>
<path fill-rule="evenodd" clip-rule="evenodd" d="M125.67 12.8961V12.3411C125.67 9.85566 123.864 8.21521 121.161 8.21521C118.459 8.21521 116.656 9.86326 116.656 12.3487V13.9967C116.656 16.4821 118.491 18.1302 121.229 18.1302C122.765 18.1302 124.383 17.6244 125.002 16.6507C125.318 16.1393 125.102 15.266 124.033 14.9458C123.578 14.7862 123.072 14.8894 122.715 15.2148C122.132 15.6846 121.632 15.8532 121.231 15.8532C120.312 15.8532 119.679 15.1655 119.662 14.1066H124.469C125.237 14.1066 125.67 13.669 125.67 12.8961ZM121.167 10.4789C122.021 10.4789 122.604 11.1173 122.672 12.091H119.661C119.733 11.1154 120.312 10.4789 121.167 10.4789Z" fill="#003368"/>
<path d="M59.3497 35.2423C58.8554 34.4001 59.0694 33.2554 60.272 32.6711C61.388 32.1312 62.1608 32.7787 62.5058 33.0811C63.666 34.1181 64.7192 34.3574 65.7264 34.3574C67.51 34.3574 68.7127 33.6154 68.7127 32.5208V32.4559C68.7127 29.2149 58.9365 32.1312 58.9365 25.6289V25.3469C58.9365 22.1931 61.6204 20.0968 65.6802 20.0968C68.0007 20.0968 70.1921 20.8388 71.4796 22.3656C72.1676 23.1875 71.76 24.4619 70.5997 24.9629C69.4395 25.4638 68.7736 24.9629 68.3863 24.5918C67.6471 23.8331 66.6271 23.4183 65.5714 23.4472C63.8966 23.4472 62.8046 24.0724 62.8046 25.0018V25.0667C62.8046 28.4376 72.6859 25.4563 72.6859 31.8715V32.1535C72.6859 35.4798 69.849 37.7041 65.6175 37.7041C63.109 37.7041 60.4878 37.1865 59.3497 35.2423Z" fill="#50B047"/>
<path d="M74.167 31.4616V22.1283C74.167 20.8111 74.8772 20.0876 76.1868 20.0876C77.4967 20.0876 78.2156 20.8019 78.2156 22.1283V31.2464C78.2156 32.9959 79.3761 34.1405 81.0936 34.1405C82.8103 34.1405 83.9502 32.9959 83.9502 31.2464V22.1283C83.9502 20.8111 84.6592 20.0876 85.9701 20.0876C87.2818 20.0876 87.9886 20.8019 87.9886 22.1283V31.4616C87.9886 35.2202 85.2398 37.7043 81.0936 37.7043C76.9465 37.7043 74.167 35.2202 74.167 31.4616Z" fill="#50B047"/>
<path d="M90.0889 35.2423C89.595 34.4001 89.8108 33.2554 91.0115 32.6711C92.1271 32.1312 92.9023 32.7787 93.245 33.0811C94.4054 34.1181 95.4587 34.3574 96.4679 34.3574C98.2493 34.3574 99.4523 33.6154 99.4523 32.5208V32.4559C99.4523 29.2149 89.6763 32.1312 89.6763 25.6289V25.3469C89.6763 22.1931 92.3597 20.0968 96.4201 20.0968C98.7402 20.0968 100.932 20.8388 102.221 22.3656C102.907 23.1875 102.5 24.4619 101.339 24.9629C100.179 25.4638 99.5131 24.9629 99.1255 24.5918C98.3868 23.8329 97.367 23.4181 96.3106 23.4472C94.6365 23.4472 93.5444 24.0724 93.5444 25.0018V25.0667C93.5444 28.4376 103.425 25.4563 103.425 31.8715V32.1535C103.425 35.4798 100.591 37.7041 96.3593 37.7041C93.8484 37.7041 91.2273 37.1865 90.0889 35.2423Z" fill="#50B047"/>
<path fill-rule="evenodd" clip-rule="evenodd" d="M40.2673 32.3788C40.1662 32.3788 40.0668 32.3788 39.9675 32.3788C35.7465 32.5484 32.2868 36.1814 32.3015 40.629C32.2521 41.4027 32.1132 42.1679 31.8877 42.9087C30.8069 46.2404 27.73 48.4862 24.2695 48.4692C22.1709 48.4875 20.1515 47.6577 18.6579 46.1634C16.8389 44.3589 16.4049 42.685 16.1363 40.2879C16.1066 36.0522 12.8025 32.5855 8.62667 32.4086C8.50348 32.4086 8.38022 32.4179 8.25885 32.4179C8.13741 32.4179 7.99211 32.4179 7.86155 32.4086H7.81925C3.58925 32.1721 0.278723 28.6271 0.27832 24.3336C0.279336 19.8682 3.85092 16.2484 8.25703 16.2474C10.9289 16.247 13.4236 17.6026 14.9022 19.858C15.1426 20.2099 15.3489 20.5845 15.5183 20.9764C15.9717 21.9828 16.2158 23.0728 16.2357 24.1789C16.2596 24.3951 16.2835 24.6188 16.3092 24.8462C16.5505 28.6674 19.3997 31.795 23.1389 32.3431C26.8781 32.8912 30.485 30.71 31.7847 27.1148C32.0657 26.3113 32.2377 25.4729 32.296 24.6226C32.296 24.5163 32.296 24.41 32.296 24.3019C32.2983 19.9218 35.7392 16.3387 40.0595 16.2176L40.0706 16.2083H40.3998L40.2453 16.2194H40.2783C44.6382 16.2866 48.1377 19.8875 48.1377 24.3066C48.1377 28.7256 44.6382 32.3266 40.2783 32.3937L40.2673 32.3788Z" fill="#50B047"/>
<path fill-rule="evenodd" clip-rule="evenodd" d="M17.6084 3.60118C19.721 0.390833 23.7772 -0.859844 27.296 0.614085C30.8148 2.08801 32.8161 5.87598 32.076 9.66121C31.3358 13.4464 28.0602 16.1745 24.2527 16.1769C22.1365 16.1807 20.106 15.3302 18.6099 13.8134C15.9151 11.0873 15.4958 6.81151 17.6084 3.60118Z" fill="#F49301"/>
<path d="M92.0629 47.1732C92.1731 47.321 92.2103 47.4798 92.173 47.6498C92.1366 47.8198 92.0256 47.9491 91.841 48.0377C91.7862 48.0672 91.7353 48.0931 91.689 48.1153C91.6525 48.1301 91.6107 48.1485 91.5643 48.1707C91.5279 48.1855 91.4769 48.204 91.4123 48.2261C91.3569 48.2409 91.2831 48.2631 91.1912 48.2927C90.9974 48.3517 90.7892 48.3924 90.568 48.4146C90.356 48.4441 90.1349 48.4589 89.9038 48.4589C89.3597 48.4589 88.8612 48.385 88.409 48.2372C87.9113 48.0747 87.5009 47.8272 87.1779 47.4947C86.864 47.1917 86.6239 46.7964 86.4582 46.3087C86.3845 46.0871 86.329 45.8469 86.2918 45.5883C86.2553 45.3223 86.2363 45.0378 86.2363 44.7348C86.2363 44.4246 86.2553 44.1401 86.2918 43.8814C86.329 43.6155 86.3845 43.3716 86.4582 43.15C86.6239 42.6623 86.864 42.267 87.1779 41.9641C87.5009 41.6315 87.9113 41.384 88.409 41.2214C88.8612 41.0737 89.3597 40.9998 89.9038 40.9998C90.1349 40.9998 90.356 41.0145 90.568 41.0441C90.7892 41.0663 90.9974 41.1069 91.1912 41.166C91.2831 41.1956 91.3569 41.2214 91.4123 41.2436C91.4769 41.2584 91.5279 41.2769 91.5643 41.299C91.6107 41.3138 91.6525 41.3322 91.689 41.3544C91.7353 41.3692 91.7862 41.3914 91.841 41.4209C92.0256 41.5096 92.1366 41.6389 92.173 41.8088C92.2103 41.9788 92.1731 42.1377 92.0629 42.2854L91.9937 42.3741C91.8736 42.5293 91.7118 42.629 91.5089 42.6734C91.2786 42.7103 91.0757 42.6845 90.9001 42.5958C90.7155 42.5145 90.5361 42.4628 90.3606 42.4406C90.185 42.4111 90.033 42.3962 89.9038 42.3962C89.7473 42.3962 89.5991 42.4074 89.4608 42.4296C89.3225 42.4443 89.1933 42.4702 89.0732 42.5071C88.8703 42.5736 88.6955 42.677 88.5473 42.8174C88.3725 42.9874 88.2388 43.2164 88.1461 43.5046C88.0359 43.8297 87.9804 44.2398 87.9804 44.7348C87.9804 45.2299 88.0359 45.6363 88.1461 45.9541C88.2388 46.2422 88.3725 46.4713 88.5473 46.6412C88.6955 46.7816 88.8703 46.8851 89.0732 46.9515C89.1933 46.9885 89.3225 47.0181 89.4608 47.0402C89.5991 47.055 89.7473 47.0624 89.9038 47.0624C90.033 47.0624 90.185 47.0513 90.3606 47.0291C90.5361 46.9996 90.7155 46.9441 90.9001 46.8629C91.0757 46.7742 91.2786 46.7483 91.5089 46.7853C91.7118 46.8296 91.8736 46.9294 91.9937 47.0845L92.0629 47.1732Z" fill="#F49301"/>
<path d="M93.7605 42.7065C93.9824 42.7065 94.1708 42.7693 94.3281 42.8949C94.4847 43.0205 94.563 43.172 94.563 43.3493V47.7605C94.563 47.9378 94.4847 48.0893 94.3281 48.2149C94.1708 48.3405 93.9824 48.4033 93.7605 48.4033H93.6222C93.401 48.4033 93.2118 48.3405 93.0552 48.2149C92.8979 48.0893 92.8196 47.9378 92.8196 47.7605V43.3493C92.8196 43.172 92.8979 43.0205 93.0552 42.8949C93.2118 42.7693 93.401 42.7065 93.6222 42.7065H93.7605ZM93.6913 42.3851C93.4238 42.3851 93.1981 42.3112 93.0134 42.1634C92.8379 42.0156 92.7505 41.8309 92.7505 41.6092C92.7505 41.3875 92.8379 41.2028 93.0134 41.0551C93.1981 40.9073 93.4238 40.8334 93.6913 40.8334C93.9588 40.8334 94.1807 40.9073 94.3555 41.0551C94.5402 41.2028 94.6321 41.3875 94.6321 41.6092C94.6321 41.8309 94.5402 42.0156 94.3555 42.1634C94.1807 42.3112 93.9588 42.3851 93.6913 42.3851Z" fill="#F49301"/>
<path d="M95.5658 44.3471C95.6859 43.985 95.8698 43.6747 96.1191 43.416C96.3866 43.1501 96.7141 42.9543 97.1017 42.8286C97.471 42.7105 97.8586 42.6513 98.2644 42.6513C98.4027 42.6513 98.5365 42.6587 98.6657 42.6735C98.7949 42.6883 98.9241 42.7067 99.0532 42.7289V41.277C99.0532 41.0923 99.1406 40.9371 99.3162 40.8115C99.4819 40.6785 99.6848 40.6231 99.9249 40.6453L100.063 40.6563C100.275 40.6711 100.451 40.7376 100.589 40.8558C100.727 40.974 100.797 41.1181 100.797 41.288V47.7941C100.797 47.9713 100.718 48.1228 100.562 48.2484C100.404 48.3741 100.215 48.4368 99.9941 48.4368H99.8694C99.7311 48.4368 99.6202 48.4184 99.5373 48.3815C99.4636 48.3445 99.4173 48.3186 99.399 48.3039C99.3808 48.3113 99.3436 48.3223 99.2881 48.3371C99.2326 48.3445 99.1779 48.3556 99.1224 48.3703C99.0669 48.3777 99.016 48.3888 98.9697 48.4036C98.9241 48.411 98.9005 48.4147 98.9005 48.4147C98.6885 48.4516 98.4765 48.4701 98.2644 48.4701C97.8586 48.4701 97.471 48.411 97.1017 48.2928C96.7141 48.1672 96.3866 47.9713 96.1191 47.7054C95.8698 47.4467 95.6859 47.1364 95.5658 46.7743C95.4549 46.4344 95.3994 46.0318 95.3994 45.5663C95.3994 45.1008 95.4549 44.6944 95.5658 44.3471ZM97.4619 46.8186C97.471 46.8335 97.4893 46.8556 97.5166 46.8852C97.5539 46.9148 97.6002 46.9443 97.6557 46.9739C97.7195 47.0034 97.7986 47.0292 97.8905 47.0514C97.9924 47.0662 98.117 47.0736 98.2644 47.0736C98.541 47.0736 98.7303 47.0441 98.8314 46.985C98.9423 46.9184 99.016 46.8667 99.0532 46.8297V44.2917C99.016 44.2547 98.9423 44.2067 98.8314 44.1476C98.7303 44.0811 98.541 44.0479 98.2644 44.0479C97.9688 44.0479 97.7659 44.0847 97.6557 44.1587C97.5539 44.2251 97.4893 44.2732 97.4619 44.3028C97.3874 44.384 97.3137 44.5207 97.24 44.7128C97.1754 44.9049 97.1435 45.1894 97.1435 45.5663C97.1435 45.9431 97.1754 46.2276 97.24 46.4197C97.3137 46.6044 97.3874 46.7374 97.4619 46.8186Z" fill="#F49301"/>
<path d="M104.268 47.0625C104.489 47.0625 104.655 47.0403 104.765 46.9959C104.876 46.9516 104.955 46.911 105.001 46.874V44.2362C104.955 44.1992 104.876 44.1586 104.765 44.1143C104.655 44.0699 104.489 44.0478 104.268 44.0478C103.972 44.0478 103.769 44.081 103.659 44.1475C103.557 44.2141 103.492 44.262 103.465 44.2916C103.391 44.3729 103.318 44.5096 103.243 44.7017C103.179 44.8938 103.147 45.1783 103.147 45.5551C103.147 45.9319 103.179 46.2164 103.243 46.4085C103.318 46.6006 103.391 46.7374 103.465 46.8186C103.474 46.8334 103.492 46.8556 103.521 46.8851C103.557 46.9147 103.603 46.9442 103.659 46.9738C103.723 46.9959 103.802 47.0181 103.894 47.0403C103.996 47.0551 104.12 47.0625 104.268 47.0625ZM106.842 47.5944C106.906 47.7792 106.873 47.9491 106.745 48.1043C106.606 48.2742 106.427 48.3703 106.205 48.3924L106.066 48.4146C105.836 48.4442 105.629 48.3999 105.444 48.2816C105.435 48.289 105.426 48.2927 105.416 48.2927C105.351 48.3149 105.287 48.3333 105.222 48.3481C105.167 48.3555 105.103 48.3666 105.028 48.3814C104.789 48.4405 104.54 48.4664 104.281 48.459C104.032 48.459 103.783 48.4405 103.534 48.4035C103.46 48.3888 103.387 48.374 103.312 48.3592C103.248 48.3371 103.179 48.3149 103.105 48.2927C102.717 48.1671 102.39 47.9713 102.122 47.7053C101.874 47.4467 101.694 47.1363 101.583 46.7743C101.518 46.597 101.472 46.4085 101.444 46.2091C101.426 46.0095 101.417 45.7915 101.417 45.5551C101.417 45.3187 101.426 45.1007 101.444 44.9012C101.472 44.7017 101.518 44.517 101.583 44.3471C101.638 44.1549 101.712 43.9813 101.805 43.8261C101.897 43.6709 102.003 43.5305 102.122 43.405C102.159 43.3754 102.191 43.3495 102.219 43.3273C102.247 43.2978 102.28 43.2682 102.316 43.2387C102.538 43.0614 102.801 42.921 103.105 42.8175C103.446 42.7067 103.834 42.6512 104.268 42.6512H104.392C105.176 42.6512 105.767 42.8212 106.164 43.1611C106.56 43.501 106.759 43.9665 106.759 44.5576V46.9406C106.759 47.0144 106.759 47.0846 106.759 47.1512C106.759 47.2102 106.763 47.2657 106.772 47.3174C106.781 47.3691 106.791 47.4171 106.8 47.4614C106.81 47.5058 106.823 47.5501 106.842 47.5944Z" fill="#F49301"/>
<path d="M107.864 44.3471C107.984 43.985 108.168 43.6747 108.417 43.416C108.685 43.1501 109.012 42.9543 109.4 42.8286C109.769 42.7105 110.156 42.6513 110.563 42.6513C110.701 42.6513 110.835 42.6587 110.964 42.6735C111.093 42.6883 111.222 42.7067 111.351 42.7289V41.277C111.351 41.0923 111.439 40.9371 111.614 40.8115C111.78 40.6785 111.983 40.6231 112.223 40.6453L112.362 40.6563C112.574 40.6711 112.749 40.7376 112.887 40.8558C113.026 40.974 113.095 41.1181 113.095 41.288V47.7941C113.095 47.9713 113.017 48.1228 112.859 48.2484C112.703 48.3741 112.514 48.4368 112.292 48.4368H112.168C112.029 48.4368 111.919 48.4184 111.836 48.3815C111.762 48.3445 111.716 48.3186 111.697 48.3039C111.678 48.3113 111.642 48.3223 111.586 48.3371C111.531 48.3445 111.475 48.3556 111.421 48.3703C111.365 48.3777 111.314 48.3888 111.268 48.4036C111.222 48.411 111.199 48.4147 111.199 48.4147C110.987 48.4516 110.775 48.4701 110.563 48.4701C110.156 48.4701 109.769 48.411 109.4 48.2928C109.012 48.1672 108.685 47.9713 108.417 47.7054C108.168 47.4467 107.984 47.1364 107.864 46.7743C107.753 46.4344 107.698 46.0318 107.698 45.5663C107.698 45.1008 107.753 44.6944 107.864 44.3471ZM109.759 46.8186C109.769 46.8335 109.788 46.8556 109.815 46.8852C109.852 46.9148 109.898 46.9443 109.953 46.9739C110.018 47.0034 110.096 47.0292 110.189 47.0514C110.29 47.0662 110.415 47.0736 110.563 47.0736C110.839 47.0736 111.029 47.0441 111.13 46.985C111.241 46.9184 111.314 46.8667 111.351 46.8297V44.2917C111.314 44.2547 111.241 44.2067 111.13 44.1476C111.029 44.0811 110.839 44.0479 110.563 44.0479C110.267 44.0479 110.064 44.0847 109.953 44.1587C109.852 44.2251 109.788 44.2732 109.759 44.3028C109.686 44.384 109.612 44.5207 109.538 44.7128C109.474 44.9049 109.442 45.1894 109.442 45.5663C109.442 45.9431 109.474 46.2276 109.538 46.4197C109.612 46.6044 109.686 46.7374 109.759 46.8186Z" fill="#F49301"/>
<path d="M116.566 47.0624C116.787 47.0624 116.953 47.0401 117.063 46.9958C117.174 46.9515 117.253 46.9109 117.299 46.8739V44.2361C117.253 44.1991 117.174 44.1585 117.063 44.1141C116.953 44.0698 116.787 44.0477 116.566 44.0477C116.27 44.0477 116.067 44.0809 115.956 44.1474C115.855 44.2139 115.791 44.2619 115.763 44.2915C115.689 44.3728 115.615 44.5095 115.541 44.7016C115.477 44.8937 115.445 45.1782 115.445 45.555C115.445 45.9318 115.477 46.2163 115.541 46.4084C115.615 46.6005 115.689 46.7372 115.763 46.8185C115.772 46.8333 115.791 46.8554 115.818 46.885C115.855 46.9146 115.901 46.9441 115.956 46.9737C116.021 46.9958 116.1 47.018 116.192 47.0401C116.294 47.055 116.417 47.0624 116.566 47.0624ZM119.14 47.5943C119.204 47.779 119.172 47.949 119.042 48.1042C118.904 48.2741 118.724 48.3702 118.503 48.3923L118.364 48.4145C118.134 48.4441 117.926 48.3998 117.742 48.2815C117.732 48.2889 117.723 48.2926 117.714 48.2926C117.649 48.3147 117.585 48.3332 117.52 48.348C117.465 48.3554 117.4 48.3664 117.326 48.3813C117.087 48.4404 116.838 48.4662 116.579 48.4588C116.33 48.4588 116.081 48.4404 115.832 48.4034C115.758 48.3886 115.684 48.3739 115.61 48.3591C115.546 48.3369 115.477 48.3147 115.403 48.2926C115.015 48.167 114.688 47.9711 114.42 47.7052C114.171 47.4465 113.992 47.1362 113.881 46.7741C113.816 46.5969 113.77 46.4084 113.742 46.2089C113.724 46.0094 113.714 45.7914 113.714 45.555C113.714 45.3185 113.724 45.1006 113.742 44.901C113.77 44.7016 113.816 44.5168 113.881 44.3469C113.936 44.1548 114.01 43.9811 114.102 43.826C114.195 43.6708 114.3 43.5304 114.42 43.4048C114.458 43.3753 114.489 43.3494 114.518 43.3272C114.545 43.2977 114.578 43.2681 114.614 43.2386C114.835 43.0612 115.098 42.9209 115.403 42.8174C115.744 42.7066 116.132 42.6511 116.566 42.6511H116.69C117.474 42.6511 118.064 42.8211 118.461 43.1609C118.858 43.5009 119.057 43.9664 119.057 44.5575V46.9404C119.057 47.0143 119.057 47.0845 119.057 47.151C119.057 47.2101 119.061 47.2656 119.07 47.3173C119.08 47.369 119.089 47.417 119.098 47.4613C119.107 47.5056 119.121 47.55 119.14 47.5943ZM118.323 41.3655C118.304 41.395 118.295 41.4172 118.295 41.432C118.166 41.7571 118.005 41.9899 117.811 42.1303C117.617 42.2706 117.442 42.3482 117.285 42.363C117.275 42.3703 117.257 42.3741 117.23 42.3741C117.11 42.3814 116.999 42.3703 116.898 42.3408C116.805 42.3112 116.713 42.278 116.621 42.2411L116.51 42.1967C116.464 42.182 116.395 42.1598 116.303 42.1303C116.219 42.1007 116.132 42.0711 116.04 42.0416C115.947 42.012 115.864 41.9861 115.791 41.964C115.717 41.9418 115.67 41.9307 115.652 41.9307C115.579 41.9455 115.523 41.9714 115.486 42.0083C115.449 42.0452 115.398 42.1044 115.334 42.1856C115.306 42.23 115.265 42.2706 115.209 42.3075C115.163 42.3371 115.094 42.3556 115.002 42.363C114.854 42.3777 114.748 42.3593 114.683 42.3075C114.619 42.2484 114.578 42.1746 114.559 42.0859V41.975C114.568 41.9603 114.572 41.9492 114.572 41.9418C114.572 41.9344 114.578 41.9233 114.587 41.9086C114.716 41.5835 114.877 41.3507 115.071 41.2103C115.265 41.0625 115.44 40.9812 115.597 40.9665H115.652C115.753 40.9591 115.878 40.9812 116.026 41.0329C116.174 41.0773 116.284 41.1106 116.358 41.1327C116.395 41.1475 116.459 41.1697 116.551 41.1992C116.644 41.2288 116.736 41.2583 116.829 41.2879C116.921 41.3174 117.003 41.3433 117.077 41.3655C117.161 41.3876 117.212 41.3987 117.23 41.3987C117.304 41.3914 117.359 41.3692 117.396 41.3322C117.433 41.2953 117.484 41.2361 117.548 41.1549C117.603 41.0514 117.709 40.9923 117.866 40.9776C117.986 40.9627 118.088 40.985 118.171 41.044C118.254 41.0958 118.304 41.1659 118.323 41.2546V41.3655Z" fill="#F49301"/>
<path d="M123.926 45.5551C123.926 45.1783 123.894 44.8938 123.829 44.7017C123.764 44.5096 123.695 44.3729 123.622 44.2916C123.603 44.2769 123.575 44.2547 123.539 44.2251C123.511 44.1956 123.464 44.1697 123.4 44.1475C123.345 44.118 123.271 44.0958 123.179 44.081C123.087 44.0588 122.967 44.0478 122.819 44.0478C122.671 44.0478 122.552 44.0588 122.459 44.081C122.367 44.0958 122.289 44.118 122.224 44.1475C122.169 44.1697 122.122 44.1956 122.086 44.2251C122.058 44.2547 122.035 44.2769 122.016 44.2916C121.942 44.3729 121.873 44.5096 121.808 44.7017C121.744 44.8938 121.712 45.1783 121.712 45.5551C121.712 45.9319 121.744 46.2164 121.808 46.4085C121.873 46.6006 121.942 46.7374 122.016 46.8186C122.035 46.8334 122.058 46.8556 122.086 46.8851C122.122 46.9147 122.169 46.9442 122.224 46.9738C122.289 46.9959 122.367 47.0181 122.459 47.0403C122.552 47.0551 122.671 47.0625 122.819 47.0625C123.105 47.0625 123.299 47.0329 123.4 46.9738C123.511 46.9073 123.584 46.8556 123.622 46.8186C123.695 46.7374 123.764 46.6006 123.829 46.4085C123.894 46.2164 123.926 45.9319 123.926 45.5551ZM125.503 44.3471C125.614 44.6943 125.67 45.097 125.67 45.5551C125.67 46.0132 125.614 46.4196 125.503 46.7743C125.439 46.959 125.36 47.1289 125.268 47.2841C125.186 47.4393 125.079 47.5797 124.95 47.7053C124.682 47.9787 124.36 48.1745 123.981 48.2927C123.631 48.4035 123.243 48.459 122.819 48.459C122.403 48.459 122.016 48.4035 121.656 48.2927C121.278 48.1671 120.955 47.9713 120.687 47.7053C120.558 47.5797 120.448 47.4393 120.355 47.2841C120.273 47.1289 120.199 46.959 120.134 46.7743C120.023 46.4196 119.968 46.0132 119.968 45.5551C119.968 45.097 120.023 44.6943 120.134 44.3471C120.263 43.9702 120.448 43.6562 120.687 43.405C120.955 43.1389 121.278 42.9431 121.656 42.8175C122.016 42.7067 122.403 42.6512 122.819 42.6512C123.243 42.6512 123.631 42.7067 123.981 42.8175C124.36 42.9357 124.682 43.1316 124.95 43.405C125.19 43.6562 125.374 43.9702 125.503 44.3471Z" fill="#F49301"/>
</svg>
