<svg id="Camada_1" data-name="Camada 1" xmlns="http://www.w3.org/2000/svg" viewBox="0 0 118.99 179.98"><defs><style>.cls-1{fill:#fefefe;}.cls-2{fill:#73716f;}.cls-3{fill:#747370;}.cls-4{fill:#635e5e;}.cls-5{fill:#605c57;}.cls-6{fill:#696661;}.cls-7{fill:#c0bfbe;}.cls-8{fill:#201d1a;}.cls-9{fill:#bebebd;}.cls-10{fill:#bebebc;}.cls-11{fill:#4f4b4a;}.cls-12{fill:#161616;}.cls-13{fill:#262523;}.cls-14{fill:#fbfbfb;}.cls-15{fill:#40403f;}</style></defs><path class="cls-1" d="M223.41,320.24c0-28.78.07-57.55-.08-86.33,0-3.18.8-3.8,3.85-3.79q55.62.18,111.23,0c2.94,0,3.91.44,3.9,3.74q-.19,86.33,0,172.65c0,3.05-.71,3.55-3.61,3.55q-55.86-.18-111.72,0c-3.55,0-3.62-1.3-3.61-4Q223.48,363.16,223.41,320.24Z" transform="translate(-223.33 -230.12)"/><path class="cls-2" d="M252.92,337.14c-15.64-9-25.9-21.75-28.38-40.05a.6.6,0,0,0,.19-.63c-.06-.21-.13-.32-.2-.32v-4c1.21-2,.34-3.95,0-5.94a13.56,13.56,0,0,1,1.75-7.65c4.83-7.76,5.17-16.44,6.08-25.1.67-6.33,3.42-12.07,6.34-17.68,1.53-2.92,3.46-3.87,6.12-1.15,1.51,1.55,3.08,3,4.72,4.44,2.71,2.31,4.59,7.33,8.07,6.64,5.15-1,10.66-2.63,14.51-7,2.53-2.89,5.29-5.55,9.08-6.74a13.82,13.82,0,0,1,2.32-.35,16.39,16.39,0,0,1-.62,2.1c-.51,1.2-1.61,2.56-.57,3.65s2.36-.39,3.58-.59c1.47-.24,2.9-.68,4.36-.87a37.21,37.21,0,0,1,3.81-.09L292,238.87c-.2.46-.06.6.41.43,1.47-.18,2.94-.34,4.41-.53s3.48-1.15,1.78,1.88c-.93,1.64,1,2.07,1.86,2.14,3.35.24,6.35,4.61,10.05.94q4.94-4.9,9.9-9.8c2.62-2.61,4.75-2.46,6.61.94,4.61,8.45,7.35,17.37,7,27.08a10.35,10.35,0,0,0,1,5.76c14.42,26,3.07,51.37-18.26,66.92-2.14,1.56-4.38,3-6.57,4.46-2.64,1.3-5.82.92-8.33,2.65-1.88,0-3.4-.5-4-2.5.53-3,3.35-3.45,5.43-4.6,8.13-4.5,13.58-11,15.81-20.14a18.4,18.4,0,0,0,.11-9.35c-.65-2.4-1-4.65.37-7.19,1.41-2.7-1-6.08-4.15-6.95s-7-.69-9.87-3.07c-2.5-4.24-6.34-6.16-11.1-6.28-6.92-.17-13.86-.37-20.77.08-5.5.35-10.78,1.73-14.44,6.46-2.36,2.16-5.46,2.19-8.33,2.91-4,1-5.76,3.93-4.26,7.64a10.49,10.49,0,0,1,.56,5.82C245.3,316,249.41,325,258.48,332c1.44,1.11,4.41,1.88,2.28,4.85C258.18,337.79,255.6,338.78,252.92,337.14Z" transform="translate(-223.33 -230.12)"/><path class="cls-3" d="M306.15,375c2.64,2.18,5.72.76,8.57.95,11.09.74,18.41,6.79,23.43,16.19.58,1.09,2,3.25-.95,3a39.46,39.46,0,0,0-6.59.43c-7.54.62-15.34,1.5-22.59-2.36-2.17-1.15-2.33,1.19-2.53,2.54a20.47,20.47,0,0,1-3.23,8.81c-2.11,3.07-4.92,5-8.86,4.33-3.68-.65-6.58-2.58-7.76-6.23s.05-6.82,3.08-9.3c.95-.77,2.72-1.53,2-3s-2.37-.34-3.6-.38c-2.49-.07-5,0-7.48.08-1.25.06-3-.78-3.65.53-.69,1.47,1.18,2.13,2.08,2.95,3,2.76,4.23,5.89,2.53,9.82s-4.94,5.34-8.76,5.54c-4.92.26-9.77-5-10.43-11.55-.41-4.1-.75-8.31.44-12.39a6.32,6.32,0,0,0,.08-4.39c-3.19-7.29-2.66-15-2.41-22.61a3,3,0,0,1,2.72-.93c6.94,1.33,13.52-.78,20.2-2,6.67,2.55,13.49,4.11,20.7,3.63a3.65,3.65,0,0,1,3.08,1.33l-.14,2a2.79,2.79,0,0,0,0,2.92q0,4.51,0,9.05a.58.58,0,0,0-.21.62C306,374.89,306.09,375,306.15,375Z" transform="translate(-223.33 -230.12)"/><path class="cls-4" d="M306.27,360c-8.25.2-16.55.75-24-4-2.82-1.39-4.33-4.06-6.18-6.39a36.86,36.86,0,0,0-7.07-7c-1.45-1.06-3.32-2.1-1.36-4.3,5.87-2.64,11.66-4,17.13.9,1.4,3.76,1.93,8.13,7.44,8.48,6.19.38,7.6-.39,10-6.57,1.8-3.82,5-2.41,7.88-2.07,1.16,2.51,3.54,4.17,4.33,7C316.18,352.17,313.83,356.39,306.27,360Z" transform="translate(-223.33 -230.12)"/><path class="cls-5" d="M282.3,356a36.91,36.91,0,0,1-22.73,2l-.07,0c-2.19-1.22-4.69-2-6.63-3.61a11.92,11.92,0,0,1-2.22-2.88c-.77-1.2-.72-3.2-.65-4.57a10.94,10.94,0,0,1,.79-4c.48-1,1.21-1.79,1.73-2.74a4.39,4.39,0,0,0,.53-1.44c0-.14,0-1.61-.13-1.58l8.56-1.18c2.93-.89,5-.07,5.91,3,5,4.58,9.89,9.33,13.78,15A20.15,20.15,0,0,1,282.3,356Z" transform="translate(-223.33 -230.12)"/><path class="cls-6" d="M224.56,286.17c.14,2,3.25,4,0,5.94Z" transform="translate(-223.33 -230.12)"/><path class="cls-6" d="M306.16,365c-1.14-1-1.12-1.94,0-2.92Z" transform="translate(-223.33 -230.12)"/><path class="cls-6" d="M224.53,296.14a4.79,4.79,0,0,1,.34.68c0,.05-.21.18-.33.27A1.16,1.16,0,0,1,224.53,296.14Z" transform="translate(-223.33 -230.12)"/><path class="cls-6" d="M306.15,375a5.21,5.21,0,0,1-.32-.68c0-.05.22-.17.34-.26A1.14,1.14,0,0,1,306.15,375Z" transform="translate(-223.33 -230.12)"/><path class="cls-7" d="M267.39,339l-5.91-3c-5.22-4-10.48-7.91-13.47-14.18a27,27,0,0,1-2.59-15.4c.44-3.33,2.33-6.62-2.09-8.84-1.27-.64-.24-1.67.69-2.16,1.5-.79,3-1.34,1.67-3.65-.78-1.34.74-1.41,1.67-1.57l10.69-1.85c2.67,3.48,3.55,7.91,6.89,11.17,13.11,12.8,30.9,9.91,38.94-6.57.78-1.58.84-3.61,2.64-4.62,4.4.64,8.8,1.29,13.21,1.91,1.12.16.95.71,1,1.66.15,3.26,2.75,6.77-1.22,9.5,5.05,19.17-5.38,29.63-20.92,37.22-.14.07-.22.24-.33.37-4.48,2.52-9.18,2.25-13.95,1.15C279,335.4,273.11,338.17,267.39,339Z" transform="translate(-223.33 -230.12)"/><path class="cls-8" d="M306.52,288.29c-2.21,11.21-13.65,21.07-24.07,20.73-12.07-.38-22.86-9.55-24.4-20.71,2.6-6.93,9.07-7.43,14.79-8a138,138,0,0,1,22.82,0C300.51,280.69,305.84,281.66,306.52,288.29Z" transform="translate(-223.33 -230.12)"/><path class="cls-9" d="M241.29,263.16c-3.54.24-4.72-.41-5.11-2.5-1.17-6.21.72-11.75,3.59-17.07,1.07-2,2.46-1.22,3.54,0,2.77,3.29,5.45,6.64,8.17,10a2.59,2.59,0,0,1-.28,3.61C248.12,260.65,244.28,262.75,241.29,263.16Z" transform="translate(-223.33 -230.12)"/><path class="cls-10" d="M330,255.67c0,6.1-2,7.56-6.82,6a20.78,20.78,0,0,1-4.09-1.74c-6.13-3.51-6.49-5.41-2.15-10.79.72-.89,1.53-1.73,2.27-2.62,1.55-1.87,2.7-5.26,5.07-4.89,2.95.45,3.26,4.18,4.1,6.75A66.76,66.76,0,0,1,330,255.67Z" transform="translate(-223.33 -230.12)"/><path class="cls-11" d="M284.31,340.1c4.54-1.74,9.27-1.15,13.95-1.15a5.91,5.91,0,0,0,4,2.21c1.5,4.95-.5,7.44-5.49,7.88C287.93,349.84,284.84,347.63,284.31,340.1Z" transform="translate(-223.33 -230.12)"/><path class="cls-12" d="M296.38,269.58a3.26,3.26,0,0,1,1.83-.07,5.11,5.11,0,0,1,1.73.61c2.33,1.61,3,3.94,1.29,6.39-1.31,1.88-3.18,3.06-5.45,1.54s-3.19-3.75-1.67-6.36a8.3,8.3,0,0,1,.89-1.16,3.27,3.27,0,0,1,1.29-.91Z" transform="translate(-223.33 -230.12)"/><path class="cls-12" d="M269,269.82a4.16,4.16,0,0,1,1.49,1.34,6,6,0,0,1,.72,1.86,4.39,4.39,0,0,1,0,1.91,5.35,5.35,0,0,1-1.61,2.63,3.32,3.32,0,0,1-4.49.5,4.37,4.37,0,0,1-2.31-4.58,5.69,5.69,0,0,1,1.32-3,4.06,4.06,0,0,1,3-1.25A5,5,0,0,1,269,269.82Z" transform="translate(-223.33 -230.12)"/><path class="cls-13" d="M269.55,268.75a7.16,7.16,0,0,1-2.71-1.7,1.66,1.66,0,0,1-.31-2.21c.53-.75,1.42-.63,2.22-.3a6.4,6.4,0,0,1,1.33.59c1.33.94,4.19.75,3.58,3.1-.23.88-1,1.09-1.77,1A9.06,9.06,0,0,1,269.55,268.75Z" transform="translate(-223.33 -230.12)"/><path class="cls-13" d="M296.12,268.52l-1.18.35a4,4,0,0,1-1.2.31,1.8,1.8,0,0,1-1.38-1c-.44-.86.14-1.59.94-1.94,1.74-.78,4.19-2.64,5.3-1.48a3.3,3.3,0,0,1,.67.9c.33.71-.09,1.24-.67,1.63-.33.21-.68.41-1,.59a7.26,7.26,0,0,1-1.32.63Z" transform="translate(-223.33 -230.12)"/><path class="cls-1" d="M292.41,239.3l-.65.31.24-.74Z" transform="translate(-223.33 -230.12)"/><path class="cls-14" d="M282.63,384.92c-8.43,0-12.49-3.23-12.56-9.94-.08-7.19,5.38-11.73,14.15-11.79,8-.05,12.94,4.51,12.82,11.91C296.94,381.85,292.4,384.94,282.63,384.92Z" transform="translate(-223.33 -230.12)"/><path class="cls-15" d="M294.37,324.65c-.92.47-1.27-.38-1.48-1.13-.12-.41-.3-.79-.43-1.19a3.42,3.42,0,0,0-.53-1.38c-.71-.82-1.92-.74-2.9-.75s-2.15,0-3.23-.14a10.69,10.69,0,0,1-6-2.4c-1.15-1-2.4-.36-3.56.51-.73.56-1.11,2.76-2.42,1.22-.77-.9.74-2,1.47-2.76,1.52-1.65,3.34-1.7,5.31-.9.87.35,1.71.79,2.6,1.06a22.36,22.36,0,0,0,3.17.42,17.53,17.53,0,0,1,3.43.84,10.17,10.17,0,0,1,2.88,1.31,7,7,0,0,1,1.85,2.73C294.89,322.87,295.39,324.13,294.37,324.65Z" transform="translate(-223.33 -230.12)"/></svg>