<svg width="120" height="44" viewBox="0 0 120 44" fill="none" xmlns="http://www.w3.org/2000/svg">
<path fill-rule="evenodd" clip-rule="evenodd" d="M31.2748 2.20616L31.1919 2.17365C24.7289 12.4676 27.7784 16.072 28.3123 17.3722C28.8534 18.6903 31.2797 21.8985 31.9642 22.8481C32.3805 23.4224 32.7179 24.0222 33.0714 24.6313C35.2351 28.3511 30.9713 31.8 28.0385 33.5615C23.9904 35.9918 18.8907 37.5676 14.0599 37.1984C13.6379 37.1667 13.2184 37.1164 12.8013 37.0452C11.6594 36.8494 10.4893 36.303 9.84591 35.3424C9.25651 34.4608 9.18323 33.3347 9.3966 32.3077C9.86687 30.0422 11.5587 28.2226 13.1355 26.4797C14.9811 24.4394 16.7647 22.3296 18.1756 19.9906C19.5872 17.6517 20.6204 15.0642 20.8636 12.3716C21.1631 16.5518 19.2925 20.6005 16.9999 24.1646C15.5472 26.4239 13.894 28.6019 12.9527 31.0987C12.699 31.7721 12.4913 32.5538 12.6974 33.2643C12.9116 34.0034 13.6009 34.4253 14.3039 34.7093C18.0564 36.2256 22.5788 35.0483 25.9207 33.1211C27.3782 32.2806 29.2368 31.0615 29.7843 29.4308C30.2007 28.1893 29.8624 26.8473 29.4074 25.6608C28.6594 23.7134 27.4071 22.0006 26.4279 20.1624C25.7773 18.9403 25.2394 17.6447 25.0824 16.2708C25.0566 16.0503 25.0429 15.8289 25.0445 15.6068C25.0799 9.96529 29.8374 3.73631 31.1275 2.14966L31.1492 2.1574L31.0478 2.11792C28.4307 1.08312 25.5655 0.510376 22.5594 0.510376C10.2164 0.510376 0.210938 10.1271 0.210938 21.9905C0.210938 33.8533 10.2164 43.47 22.5594 43.47C34.9009 43.47 44.9072 33.8533 44.9072 21.9905C44.9072 13.0999 39.2873 5.47234 31.2748 2.20616Z" fill="#E42722"/>
<path fill-rule="evenodd" clip-rule="evenodd" d="M54.3175 33.2263L53.5219 35.1582C53.4301 35.3888 53.3214 35.7294 53.3214 35.7294H53.3093C53.3093 35.7294 53.195 35.3888 53.104 35.1582L52.3076 33.2263H51.5176L51.1851 37.1342H51.9242L52.0958 34.9492C52.1127 34.6899 52.1014 34.3385 52.1014 34.3385H52.1127C52.1127 34.3385 52.2392 34.724 52.3365 34.9492L52.9888 36.4624H53.6362L54.295 34.9492C54.3924 34.724 54.5124 34.3424 54.5124 34.3424H54.5237C54.5237 34.3424 54.5124 34.6899 54.5293 34.9492L54.7016 37.1342H55.4344L55.1075 33.2263H54.3175Z" fill="#020203"/>
<path fill-rule="evenodd" clip-rule="evenodd" d="M57.0783 35.4713H58.4472V34.8599H57.0783V33.8375H58.7734V33.2268H56.3398V37.1338H58.8651V36.5231H57.0783V35.4713Z" fill="#020203"/>
<path fill-rule="evenodd" clip-rule="evenodd" d="M60.9784 36.5232H60.3713V33.8359H60.9784C61.7917 33.8359 62.3297 34.3049 62.3297 35.1749C62.3297 36.0557 61.803 36.5232 60.9784 36.5232ZM61.0179 33.2252H59.6328V37.1338H61.0179C62.2725 37.1338 63.0914 36.4078 63.0914 35.1749C63.0914 33.9412 62.2725 33.2252 61.0179 33.2252Z" fill="#020203"/>
<path fill-rule="evenodd" clip-rule="evenodd" d="M67.4847 36.5504C66.6368 36.5504 66.1157 35.8957 66.1157 35.1519C66.1157 34.4259 66.6199 33.8091 67.4782 33.8091C68.1265 33.8091 68.5896 34.2223 68.5896 34.2223L68.9438 33.6929C68.9438 33.6929 68.4349 33.1597 67.4445 33.1597C66.2479 33.1597 65.354 34.0296 65.354 35.1635C65.354 36.3128 66.2132 37.1998 67.4558 37.1998C68.4929 37.1998 69.0534 36.5667 69.0534 36.5667L68.6645 36.0544C68.6645 36.0544 68.1885 36.5504 67.4847 36.5504Z" fill="#020203"/>
<path fill-rule="evenodd" clip-rule="evenodd" d="M63.8652 37.1336H64.6037V33.2258H63.8652V37.1336Z" fill="#020203"/>
<path fill-rule="evenodd" clip-rule="evenodd" d="M69.7344 37.1336H70.4728V33.2258H69.7344V37.1336Z" fill="#020203"/>
<path fill-rule="evenodd" clip-rule="evenodd" d="M74.0926 35.4837C74.0926 35.7144 74.1329 36.0874 74.1329 36.0874H74.1212C74.1212 36.0874 73.938 35.709 73.7834 35.4837L72.2431 33.2268H71.5039V37.1347H72.2431V34.8839C72.2431 34.6525 72.2028 34.2771 72.2028 34.2771H72.2141C72.2141 34.2771 72.3978 34.6579 72.5524 34.8839L74.0926 37.1347H74.8253V33.2268H74.0926V35.4837Z" fill="#020203"/>
<path fill-rule="evenodd" clip-rule="evenodd" d="M76.6294 35.5537L76.9907 34.5073C77.0705 34.2882 77.1629 33.9028 77.1629 33.9028H77.1739C77.1739 33.9028 77.2603 34.2882 77.3343 34.5073L77.6948 35.5537H76.6294ZM76.7782 33.2263L75.3472 37.1342H76.1085L76.4521 36.1326H77.8787L78.2217 37.1342H78.9837L77.5512 33.2263H76.7782Z" fill="#020203"/>
<path fill-rule="evenodd" clip-rule="evenodd" d="M82.2423 36.5231H81.6363V33.8359H82.2423C83.0556 33.8359 83.5934 34.3049 83.5934 35.1749C83.5934 36.0557 83.0673 36.5231 82.2423 36.5231ZM82.2826 33.2252H80.897V37.1338H82.2826C83.5363 37.1338 84.3554 36.4078 84.3554 35.1749C84.3554 33.9412 83.5363 33.2252 82.2826 33.2252Z" fill="#020203"/>
<path fill-rule="evenodd" clip-rule="evenodd" d="M87.6712 35.5537L88.0324 34.5073C88.113 34.2882 88.2046 33.9028 88.2046 33.9028H88.2156C88.2156 33.9028 88.3013 34.2882 88.3761 34.5073L88.7366 35.5537H87.6712ZM87.8207 33.2263L86.3896 37.1342H87.1502L87.4946 36.1326H88.9198L89.2634 37.1342H90.0254L88.5937 33.2263H87.8207Z" fill="#020203"/>
<path fill-rule="evenodd" clip-rule="evenodd" d="M92.7684 35.6867H93.3919V36.1425C93.3919 36.1425 92.9853 36.5504 92.3734 36.5504C91.6107 36.5504 91.0098 36.0001 91.0098 35.1526C91.0098 34.4151 91.4964 33.8091 92.4071 33.8091C93.0549 33.8091 93.4887 34.1829 93.4887 34.1829L93.8557 33.655C93.8557 33.655 93.3406 33.1597 92.3449 33.1597C91.1366 33.1597 90.2485 34.0405 90.2485 35.1751C90.2485 36.4011 91.1703 37.1998 92.2415 37.1998C92.9977 37.1998 93.4212 36.7819 93.4212 36.7819H93.4322C93.4322 36.7819 93.4271 36.8639 93.4271 36.9467V37.1341H94.0565V35.0752H92.7684V35.6867Z" fill="#020203"/>
<path fill-rule="evenodd" clip-rule="evenodd" d="M97.4647 35.4837C97.4647 35.7144 97.5043 36.0874 97.5043 36.0874H97.4933C97.4933 36.0874 97.3101 35.709 97.1562 35.4837L95.6146 33.2268H94.876V37.1347H95.6146V34.8839C95.6146 34.6525 95.575 34.2771 95.575 34.2771H95.586C95.586 34.2771 95.7692 34.6579 95.9238 34.8839L97.4647 37.1347H98.1982V33.2268H97.4647V35.4837Z" fill="#020203"/>
<path fill-rule="evenodd" clip-rule="evenodd" d="M101.319 32.9681L101.922 32.2188H101.171L100.735 32.9681H101.319Z" fill="#020203"/>
<path fill-rule="evenodd" clip-rule="evenodd" d="M101.051 36.5504C100.305 36.5504 99.7098 35.9561 99.7098 35.1519C99.7098 34.3818 100.305 33.8098 101.051 33.8098C101.794 33.8098 102.391 34.3818 102.391 35.1519C102.391 35.9561 101.794 36.5504 101.051 36.5504ZM101.051 33.1597C99.8534 33.1597 98.9492 34.0351 98.9492 35.1519C98.9492 36.3028 99.8534 37.2006 101.051 37.2006C102.246 37.2006 103.151 36.3028 103.151 35.1519C103.151 34.0351 102.246 33.1597 101.051 33.1597Z" fill="#020203"/>
<path fill-rule="evenodd" clip-rule="evenodd" d="M106.582 33.837H107.916V37.1342H108.655V33.837H109.989V33.2256H106.582V33.837Z" fill="#020203"/>
<path fill-rule="evenodd" clip-rule="evenodd" d="M110.528 37.1336H111.266V33.2258H110.528V37.1336Z" fill="#020203"/>
<path fill-rule="evenodd" clip-rule="evenodd" d="M114.147 36.5504C113.3 36.5504 112.779 35.8957 112.779 35.1519C112.779 34.4259 113.283 33.8091 114.142 33.8091C114.788 33.8091 115.252 34.2223 115.252 34.2223L115.608 33.6929C115.608 33.6929 115.098 33.1597 114.107 33.1597C112.911 33.1597 112.017 34.0296 112.017 35.1635C112.017 36.3128 112.876 37.1998 114.119 37.1998C115.155 37.1998 115.716 36.5667 115.716 36.5667L115.327 36.0544C115.327 36.0544 114.852 36.5504 114.147 36.5504Z" fill="#020203"/>
<path fill-rule="evenodd" clip-rule="evenodd" d="M117.171 35.5537L117.532 34.5073C117.612 34.2882 117.703 33.9028 117.703 33.9028H117.715C117.715 33.9028 117.801 34.2882 117.875 34.5073L118.236 35.5537H117.171ZM117.319 33.2263L115.888 37.1342H116.65L116.993 36.1326H118.419L118.763 37.1342H119.525L118.093 33.2263H117.319Z" fill="#020203"/>
<path fill-rule="evenodd" clip-rule="evenodd" d="M85.064 37.1336H85.8077V33.2258H85.064V37.1336Z" fill="#020203"/>
<path fill-rule="evenodd" clip-rule="evenodd" d="M104.423 34.2819C104.423 34.0079 104.693 33.8144 105.036 33.8144C105.546 33.8144 105.936 34.1558 105.936 34.1558L106.256 33.5784C106.256 33.5784 105.843 33.1604 105.042 33.1604C104.263 33.1604 103.679 33.6442 103.679 34.2943C103.679 35.4932 105.597 35.3725 105.597 36.0714C105.597 36.391 105.317 36.5451 105.008 36.5451C104.434 36.5451 103.994 36.1317 103.994 36.1317L103.593 36.665C103.593 36.665 104.092 37.1998 104.996 37.1998C105.843 37.1998 106.337 36.6766 106.337 36.0543C106.337 34.8051 104.423 34.9754 104.423 34.2819Z" fill="#020203"/>
<path fill-rule="evenodd" clip-rule="evenodd" d="M61.8467 22.1728C60.9745 21.5435 59.9551 21.1589 58.971 20.7742C57.9878 20.4236 56.9329 20.0397 56.1317 19.6899C55.4045 19.3385 55.0405 18.9546 55.0405 18.3254C55.0405 17.0305 56.3507 16.3301 57.7704 16.3301C58.8623 16.3301 59.9188 16.6451 61.4118 17.45L62.6857 15.3162C60.9012 14.3356 59.335 13.7767 57.6609 13.7767C54.7844 13.7767 51.8364 15.4562 51.8364 18.6388C51.8364 21.4723 54.0927 22.3137 56.3507 23.1186C56.8226 23.3291 57.3332 23.5381 57.8074 23.7146C58.8253 24.0637 60.1363 24.4475 60.1725 25.7068C60.2095 27.2463 58.5716 27.9823 56.8967 27.9823C55.5495 27.9823 54.0565 27.4924 52.7093 26.4769L51.3999 28.5427C53.1095 29.8019 55.0043 30.5356 56.9329 30.5356C59.9551 30.5356 63.4121 28.9962 63.4853 25.463C63.5216 23.8872 62.7952 22.8733 61.8467 22.1728Z" fill="#E42722"/>
<path fill-rule="evenodd" clip-rule="evenodd" d="M74.8438 26.9679C74.369 27.3866 73.1686 28.0181 71.8947 28.0181C70.0385 27.9826 68.7267 26.5112 68.7267 24.9717C68.7267 23.3286 70.0015 22.3139 71.8214 22.3139L74.8438 22.3487V26.9679ZM78.1557 18.7079C78.1557 15.6306 75.3531 13.8815 72.6226 13.8815C70.4017 13.917 68.9096 14.2654 66.6894 15.4209L67.6348 17.5199C69.3839 16.6802 70.4741 16.3295 71.9671 16.3295C73.4963 16.3295 74.9171 17.3806 74.9171 18.8481V19.934H71.0572C67.8901 19.934 65.306 21.8589 65.2319 25.043C65.2319 27.9826 67.7435 30.3261 70.7294 30.3958V30.3618C73.969 30.4322 76.5174 29.2062 78.1917 27.5964L78.1557 18.7079Z" fill="#E42722"/>
<path fill-rule="evenodd" clip-rule="evenodd" d="M84.9269 17.3459C85.8018 16.8901 87.2936 16.2608 88.677 16.3653H88.7136C91.7347 16.541 92.2805 19.3397 92.2805 21.9634C92.2805 24.5532 91.5156 27.913 88.8953 28.0175C86.9309 28.1228 85.3636 27.3527 84.9269 27.002V17.3459ZM89.2595 30.4323V30.3959C93.628 30.5361 95.8863 26.2319 95.9215 21.7886C95.9215 17.8699 93.8815 13.9513 89.2595 13.8112C87.6578 13.7763 86.2378 14.1951 84.9269 14.8955V5.06445L81.6143 6.14802V27.492C81.7234 27.6685 83.8351 30.2558 89.2595 30.4323Z" fill="#E42722"/>
<path fill-rule="evenodd" clip-rule="evenodd" d="M101.091 7.19751C99.8534 7.19751 98.8701 8.14253 98.8701 9.33293H98.8335C98.8335 10.5225 99.8161 11.4668 101.052 11.4668C102.291 11.4668 103.275 10.5225 103.275 9.33293C103.311 8.14253 102.327 7.19751 101.091 7.19751Z" fill="#E42722"/>
<path fill-rule="evenodd" clip-rule="evenodd" d="M102.8 13.6724L99.3789 14.7567L99.4155 30.1162H102.8V13.6724Z" fill="#E42722"/>
<path fill-rule="evenodd" clip-rule="evenodd" d="M115.87 14.0572C113.904 13.637 112.083 13.9868 110.773 14.3351C109.098 14.7917 107.861 15.5603 106.37 16.6105V30.1165H109.755V17.3102C110.52 16.8211 111.684 16.3312 112.885 16.2955C114.997 16.2623 116.343 17.3806 116.343 19.4449V30.1165H119.729V18.2205C119.729 15.9116 117.873 14.4752 115.87 14.0572Z" fill="#E42722"/>
</svg>
