<svg width="26" height="26" viewBox="0 0 26 26" fill="none" xmlns="http://www.w3.org/2000/svg">
<g clip-path="url(#clip0_980_92151)">
<circle cx="13" cy="13" r="12.25" stroke="#DC2113" stroke-width="1.5"/>
<path fill-rule="evenodd" clip-rule="evenodd" d="M8.4038 8.4038C8.53148 8.2758 8.68316 8.17425 8.85014 8.10496C9.01713 8.03567 9.19614 8 9.37693 8C9.55772 8 9.73674 8.03567 9.90372 8.10496C10.0707 8.17425 10.2224 8.2758 10.3501 8.4038L13.5004 11.5569L16.6507 8.4038C16.9087 8.14572 17.2588 8.00072 17.6238 8.00072C17.9888 8.00072 18.3388 8.14572 18.5969 8.4038C18.855 8.66189 19 9.01194 19 9.37693C19 9.74193 18.855 10.092 18.5969 10.3501L15.4439 13.5004L18.5969 16.6507C18.855 16.9087 19 17.2588 19 17.6238C19 17.9888 18.855 18.3388 18.5969 18.5969C18.3388 18.855 17.9888 19 17.6238 19C17.2588 19 16.9087 18.855 16.6507 18.5969L13.5004 15.4439L10.3501 18.5969C10.092 18.855 9.74193 19 9.37693 19C9.01194 19 8.66189 18.855 8.4038 18.5969C8.14571 18.3388 8.00072 17.9888 8.00072 17.6238C8.00072 17.2588 8.14571 16.9087 8.4038 16.6507L11.5569 13.5004L8.4038 10.3501C8.2758 10.2224 8.17425 10.0707 8.10496 9.90372C8.03567 9.73674 8 9.55772 8 9.37693C8 9.19614 8.03567 9.01713 8.10496 8.85014C8.17425 8.68316 8.2758 8.53148 8.4038 8.4038Z" fill="#DC2113"/>
</g>
<defs>
<clipPath id="clip0_980_92151">
<rect width="26" height="26" fill="white"/>
</clipPath>
</defs>
</svg>
