<svg width="26" height="26" viewBox="0 0 26 26" fill="none" xmlns="http://www.w3.org/2000/svg">
<path d="M12.825 24.0469C9.84877 24.0469 6.99445 22.8646 4.88994 20.7601C2.78543 18.6556 1.60312 15.8012 1.60312 12.825C1.60312 9.84877 2.78543 6.99445 4.88994 4.88994C6.99445 2.78543 9.84877 1.60312 12.825 1.60312C15.8012 1.60312 18.6556 2.78543 20.7601 4.88994C22.8646 6.99445 24.0469 9.84877 24.0469 12.825C24.0469 15.8012 22.8646 18.6556 20.7601 20.7601C18.6556 22.8646 15.8012 24.0469 12.825 24.0469ZM12.825 25.65C16.2264 25.65 19.4885 24.2988 21.8936 21.8936C24.2988 19.4885 25.65 16.2264 25.65 12.825C25.65 9.4236 24.2988 6.16151 21.8936 3.75636C19.4885 1.3512 16.2264 0 12.825 0C9.4236 0 6.16151 1.3512 3.75636 3.75636C1.3512 6.16151 0 9.4236 0 12.825C0 16.2264 1.3512 19.4885 3.75636 21.8936C6.16151 24.2988 9.4236 25.65 12.825 25.65Z" fill="#28B446"/>
<path d="M17.5863 7.96753C17.5749 7.9786 17.5641 7.99038 17.5542 8.0028L11.9866 15.0966L8.63122 11.7397C8.4033 11.5273 8.10184 11.4117 7.79035 11.4172C7.47886 11.4227 7.18166 11.5489 6.96137 11.7691C6.74108 11.9894 6.6149 12.2866 6.6094 12.5981C6.60391 12.9096 6.71953 13.2111 6.93191 13.439L11.1738 17.6825C11.2881 17.7965 11.4241 17.8864 11.5739 17.9468C11.7237 18.0071 11.884 18.0366 12.0455 18.0336C12.2069 18.0307 12.3661 17.9952 12.5135 17.9293C12.6609 17.8635 12.7936 17.7686 12.9036 17.6504L19.3032 9.65081C19.5211 9.4221 19.6403 9.11681 19.6349 8.80094C19.6295 8.48508 19.5 8.18403 19.2745 7.96287C19.0489 7.74172 18.7453 7.61822 18.4294 7.6191C18.1135 7.61997 17.8106 7.74513 17.5863 7.96753Z" fill="#28B446"/>
</svg>
