<svg width="143" height="37" viewBox="0 0 143 37" fill="none" xmlns="http://www.w3.org/2000/svg">
<g clip-path="url(#clip0_340_87496)">
<path d="M62.1385 9.62145C60.6632 7.2441 58.5937 5.39741 55.9086 4.10261C53.234 2.8078 50.1668 2.1604 46.707 2.1604H36.3379H31.7743H29.8533C28.4205 2.1604 27.1363 3.02007 26.5738 4.3361L22.0632 14.9705C20.8321 17.8785 16.7036 17.8679 15.4937 14.9492L11.0786 4.35732C10.5267 3.03068 9.22132 2.1604 7.78854 2.1604H5.91002C3.35225 2.1604 1.6223 4.78185 2.63055 7.13797L13.0739 31.6437C13.6364 32.9598 14.9206 33.8088 16.3534 33.8088H20.45C21.8722 33.8088 23.167 32.9598 23.7295 31.6437L24.9288 28.8312C26.4571 25.2546 31.7743 26.3478 31.7743 30.2428C31.7743 32.2168 33.3662 33.8194 35.3403 33.8194H46.707C50.1668 33.8194 53.234 33.172 55.9086 31.8772C58.5831 30.5824 60.6632 28.7463 62.1385 26.3584C63.6137 23.981 64.346 21.1898 64.346 17.9952C64.346 14.79 63.6137 11.9988 62.1385 9.62145ZM52.8626 24.3631C51.2176 25.902 49.0525 26.6662 46.3461 26.6662H44.2766C42.3025 26.6662 40.7105 25.0636 40.7105 23.0895V12.8691C40.7105 10.895 42.3025 9.29244 44.2766 9.29244H46.3461C49.0525 9.29244 51.2282 10.0566 52.8626 11.5955C54.497 13.1344 55.3248 15.257 55.3248 17.974C55.3248 20.7016 54.497 22.8242 52.8626 24.3631Z" fill="#2C5EDE"/>
<path d="M80.1384 7.39258L75.511 18.6319H71.4568L66.8613 7.39258H70.8943L73.5795 14.2593L76.4026 7.39258H80.1384Z" fill="#1FC4CC"/>
<path d="M81.3797 5.5566C80.9339 5.1533 80.7217 4.65448 80.7217 4.06014C80.7217 3.46581 80.9446 2.96699 81.3797 2.56369C81.8254 2.16039 82.3986 1.95874 83.1202 1.95874C83.8313 1.95874 84.4151 2.14978 84.8608 2.53185C85.3066 2.91392 85.5188 3.40213 85.5188 3.99647C85.5188 4.62264 85.2959 5.13207 84.8608 5.54598C84.4151 5.94928 83.8419 6.16155 83.1202 6.16155C82.3986 6.15093 81.8254 5.94928 81.3797 5.5566ZM81.1568 7.39267H85.0837V18.632H81.1568V7.39267Z" fill="#1FC4CC"/>
<path d="M99.5174 3.25342V18.6425H95.7816V17.5175C95.0493 18.3878 93.9561 18.8229 92.4915 18.8229C91.4726 18.8229 90.5387 18.5894 89.7002 18.1118C88.8618 17.6342 88.1932 16.955 87.705 16.0741C87.2168 15.1932 86.9727 14.1637 86.9727 13.0069C86.9727 11.8501 87.2168 10.8312 87.705 9.95032C88.1932 9.06942 88.8618 8.4008 89.7002 7.9232C90.5387 7.45623 91.4726 7.22274 92.4915 7.22274C93.8288 7.22274 94.8582 7.60481 95.5905 8.37957V3.25342H99.5174ZM94.9962 14.9809C95.442 14.5034 95.6542 13.8453 95.6542 12.9963C95.6542 12.1685 95.442 11.5211 95.0068 11.0435C94.5717 10.5765 94.0092 10.343 93.3193 10.343C92.6295 10.343 92.067 10.5765 91.6212 11.0435C91.1755 11.5104 90.9632 12.1685 90.9632 12.9963C90.9632 13.8347 91.1861 14.5034 91.6212 14.9809C92.067 15.4585 92.6295 15.692 93.3193 15.692C93.9986 15.692 94.5611 15.4585 94.9962 14.9809Z" fill="#1FC4CC"/>
<path d="M111.076 8.48585C112.052 9.3349 112.54 10.6403 112.54 12.3915V18.632H108.879V17.178C108.316 18.2712 107.213 18.8124 105.578 18.8124C104.708 18.8124 103.954 18.6639 103.328 18.3561C102.691 18.0483 102.214 17.645 101.895 17.125C101.566 16.6049 101.407 16.0106 101.407 15.3526C101.407 14.2912 101.811 13.4634 102.628 12.8797C103.445 12.296 104.697 11.9988 106.385 11.9988H108.614C108.539 10.8101 107.754 10.2158 106.236 10.2158C105.695 10.2158 105.154 10.3007 104.602 10.4705C104.05 10.6403 103.583 10.8844 103.201 11.1816L101.874 8.50708C102.49 8.09316 103.243 7.77477 104.135 7.54128C105.026 7.30779 105.918 7.20166 106.809 7.20166C108.677 7.21227 110.089 7.6368 111.076 8.48585ZM107.871 16C108.21 15.7771 108.465 15.4587 108.614 15.0236V14.0471H106.915C105.769 14.0471 105.196 14.4292 105.196 15.1827C105.196 15.533 105.323 15.8089 105.589 16.0106C105.854 16.2228 106.204 16.3184 106.661 16.3184C107.117 16.3184 107.52 16.2228 107.871 16Z" fill="#1FC4CC"/>
<path d="M79.4058 28.9587H71.2655C71.4353 29.5424 71.7537 29.9882 72.2313 30.2959C72.7089 30.6037 73.3032 30.7629 74.0143 30.7629C74.5556 30.7629 75.0119 30.6886 75.4046 30.54C75.7973 30.3915 76.19 30.1368 76.5933 29.7971L78.6628 31.9516C77.5697 33.1721 75.9883 33.7771 73.8869 33.7771C72.5815 33.7771 71.4247 33.533 70.4377 33.0341C69.4506 32.5353 68.6759 31.8455 68.1346 30.9646C67.5933 30.0837 67.3174 29.0754 67.3174 27.9611C67.3174 26.8573 67.5827 25.8597 68.1134 24.9894C68.644 24.1085 69.3763 23.4186 70.3103 22.9304C71.2442 22.4316 72.3056 22.1875 73.473 22.1875C74.5874 22.1875 75.6063 22.421 76.5084 22.8774C77.4211 23.3443 78.1322 24.013 78.6628 24.8939C79.1935 25.7747 79.4588 26.8148 79.4588 28.0141C79.4694 28.0141 79.4482 28.3325 79.4058 28.9587ZM71.9872 25.4776C71.5839 25.8278 71.3185 26.2948 71.2124 26.8891H75.7973C75.6912 26.2948 75.4258 25.8278 75.0225 25.4776C74.6192 25.1273 74.1098 24.9575 73.5049 24.9575C72.8999 24.9575 72.3905 25.1273 71.9872 25.4776Z" fill="#1FC4CC"/>
<path d="M99.1779 23.3973C99.9952 24.2251 100.409 25.4774 100.409 27.1543V33.5859H96.4822V27.8017C96.4822 27.0163 96.3336 26.4326 96.0365 26.0612C95.7393 25.6897 95.3254 25.4987 94.7841 25.4987C94.1898 25.4987 93.7122 25.7109 93.3619 26.1248C93.0011 26.5387 92.8207 27.1649 92.8207 28.014V33.5965H88.8938V27.8123C88.8938 26.2734 88.3313 25.5093 87.1957 25.5093C86.5908 25.5093 86.1025 25.7215 85.7523 26.1354C85.3915 26.5494 85.211 27.1755 85.211 28.0246V33.6071H81.2842V22.3466H85.02V23.5246C85.4339 23.0682 85.9221 22.7286 86.4952 22.4951C87.0683 22.2723 87.6945 22.1555 88.3632 22.1555C89.1485 22.1555 89.849 22.3041 90.4752 22.5907C91.0907 22.8772 91.6002 23.323 91.9822 23.9173C92.428 23.3548 92.9799 22.9197 93.6591 22.6119C94.3384 22.3041 95.0707 22.1555 95.8666 22.1555C97.257 22.1555 98.3501 22.5694 99.1779 23.3973Z" fill="#1FC4CC"/>
<path d="M120.798 18.197V33.5861H117.062V32.4611C116.33 33.3314 115.236 33.7665 113.772 33.7665C112.753 33.7665 111.819 33.533 110.981 33.0554C110.142 32.5778 109.473 31.8986 108.985 31.0177C108.497 30.1368 108.253 29.1073 108.253 27.9505C108.253 26.7937 108.497 25.7748 108.985 24.8939C109.473 24.013 110.142 23.3444 110.981 22.8668C111.819 22.3998 112.753 22.1663 113.772 22.1663C115.109 22.1663 116.139 22.5484 116.871 23.3232V18.197H120.798ZM116.266 29.9246C116.712 29.447 116.924 28.7889 116.924 27.9399C116.924 27.1121 116.712 26.4647 116.276 25.9871C115.841 25.5201 115.279 25.2866 114.589 25.2866C113.899 25.2866 113.337 25.5201 112.891 25.9871C112.445 26.4541 112.233 27.1121 112.233 27.9399C112.233 28.7783 112.456 29.447 112.891 29.9246C113.337 30.4021 113.899 30.6356 114.589 30.6356C115.268 30.6356 115.831 30.4021 116.266 29.9246Z" fill="#1FC4CC"/>
<path d="M123.546 20.5C123.1 20.0967 122.888 19.5978 122.888 19.0035C122.888 18.4092 123.111 17.9103 123.546 17.507C123.991 17.1037 124.565 16.9021 125.286 16.9021C125.997 16.9021 126.581 17.0931 127.027 17.4752C127.473 17.8573 127.685 18.3455 127.685 18.9398C127.685 19.566 127.462 20.0754 127.027 20.4893C126.581 20.8926 126.008 21.1049 125.286 21.1049C124.565 21.1049 123.981 20.9033 123.546 20.5ZM123.312 22.3466H127.239V33.586H123.312V22.3466Z" fill="#1FC4CC"/>
<path d="M138.807 23.4292C139.784 24.2783 140.272 25.5837 140.272 27.3348V33.5754H136.61V32.1214C136.048 33.2145 134.944 33.7558 133.31 33.7558C132.439 33.7558 131.686 33.6072 131.06 33.2994C130.423 32.9917 129.945 32.5884 129.627 32.0683C129.298 31.5483 129.139 30.9539 129.139 30.2959C129.139 29.2346 129.542 28.4068 130.359 27.8231C131.176 27.2393 132.429 26.9422 134.116 26.9422H136.345C136.271 25.7535 135.485 25.1592 133.968 25.1592C133.426 25.1592 132.885 25.2441 132.333 25.4139C131.781 25.5837 131.314 25.8278 130.932 26.125L129.606 23.4504C130.221 23.0365 130.975 22.7181 131.866 22.4846C132.758 22.2512 133.649 22.145 134.541 22.145C136.409 22.1556 137.831 22.5802 138.807 23.4292ZM135.613 30.9539C135.952 30.7311 136.207 30.4127 136.356 29.9775V29.0011H134.658C133.511 29.0011 132.938 29.3832 132.938 30.1367C132.938 30.487 133.066 30.7629 133.331 30.9645C133.596 31.1768 133.946 31.2723 134.403 31.2723C134.859 31.2723 135.262 31.1768 135.613 30.9539Z" fill="#1FC4CC"/>
</g>
<defs>
<clipPath id="clip0_340_87496">
<rect width="141.59" height="36.1059" fill="white" transform="translate(0.603516 0.281738)"/>
</clipPath>
</defs>
</svg>
