<svg width="26" height="29" viewBox="0 0 26 29" fill="none" xmlns="http://www.w3.org/2000/svg">
<path d="M10.2597 1.75415H15.5192C15.7517 1.75415 15.9747 1.84651 16.139 2.0109C16.3034 2.17529 16.3958 2.39826 16.3958 2.63074V4.38392H9.38308V2.63074C9.38308 2.39826 9.47543 2.17529 9.63982 2.0109C9.80422 1.84651 10.0272 1.75415 10.2597 1.75415ZM18.149 4.38392V2.63074C18.149 1.93329 17.8719 1.26439 17.3787 0.771217C16.8855 0.27804 16.2167 0.000976563 15.5192 0.000976563L10.2597 0.000976562C9.56221 0.000976563 8.89332 0.27804 8.40014 0.771217C7.90696 1.26439 7.6299 1.93329 7.6299 2.63074V4.38392H3.25747C3.25163 4.38387 3.24579 4.38387 3.23994 4.38392H1.49378C1.26129 4.38392 1.03833 4.47628 0.873934 4.64067C0.709542 4.80506 0.617188 5.02802 0.617188 5.26051C0.617188 5.493 0.709542 5.71596 0.873934 5.88035C1.03833 6.04474 1.26129 6.1371 1.49378 6.1371H2.43699L3.93245 24.826C4.00297 25.7047 4.40187 26.5245 5.0497 27.1223C5.69754 27.7201 6.54677 28.052 7.42828 28.0518H18.3506C19.2321 28.052 20.0813 27.7201 20.7292 27.1223C21.377 26.5245 21.7759 25.7047 21.8464 24.826L23.3419 6.1371H24.2851C24.5176 6.1371 24.7405 6.04474 24.9049 5.88035C25.0693 5.71596 25.1617 5.493 25.1617 5.26051C25.1617 5.02802 25.0693 4.80506 24.9049 4.64067C24.7405 4.47628 24.5176 4.38392 24.2851 4.38392H22.5407C22.5348 4.38387 22.529 4.38387 22.5231 4.38392H18.149ZM21.5817 6.1371L20.0985 24.6857C20.0632 25.1251 19.8638 25.535 19.5399 25.8339C19.216 26.1328 18.7913 26.2987 18.3506 26.2986H7.42828C6.98753 26.2987 6.56291 26.1328 6.23899 25.8339C5.91508 25.535 5.71563 25.1251 5.68037 24.6857L4.19718 6.1371H21.5817ZM8.45565 7.89028C8.68765 7.87687 8.91548 7.95613 9.08906 8.11065C9.26265 8.26516 9.36777 8.48228 9.38132 8.71427L10.2579 23.6163C10.2671 23.8456 10.1861 24.0693 10.0321 24.2395C9.87821 24.4097 9.66369 24.5127 9.43464 24.5265C9.20559 24.5402 8.98027 24.4637 8.80706 24.3131C8.63385 24.1626 8.52657 23.9502 8.50824 23.7215L7.6299 8.81946C7.62278 8.7043 7.63847 8.58887 7.67606 8.47978C7.71365 8.3707 7.77241 8.27011 7.84897 8.18378C7.92552 8.09745 8.01836 8.02709 8.12217 7.97672C8.22598 7.92636 8.33871 7.89698 8.45389 7.89028H8.45565ZM17.3232 7.89028C17.4384 7.89698 17.5511 7.92636 17.6549 7.97672C17.7588 8.02709 17.8516 8.09745 17.9281 8.18378C18.0047 8.27011 18.0635 8.3707 18.1011 8.47978C18.1386 8.58887 18.1543 8.7043 18.1472 8.81946L17.2706 23.7215C17.2659 23.838 17.2381 23.9523 17.1887 24.0579C17.1392 24.1635 17.0692 24.2582 16.9828 24.3364C16.8963 24.4146 16.7951 24.4748 16.6851 24.5134C16.5751 24.552 16.4585 24.5683 16.3421 24.5613C16.2258 24.5543 16.112 24.5242 16.0074 24.4726C15.9028 24.4211 15.8095 24.3493 15.7331 24.2613C15.6566 24.1733 15.5984 24.0709 15.562 23.9601C15.5256 23.8494 15.5116 23.7325 15.521 23.6163L16.3975 8.71427C16.4111 8.48228 16.5162 8.26516 16.6898 8.11065C16.8634 7.95613 17.0912 7.87687 17.3232 7.89028ZM12.8894 7.89028C13.1219 7.89028 13.3449 7.98263 13.5093 8.14703C13.6737 8.31142 13.766 8.53438 13.766 8.76687V23.6689C13.766 23.9014 13.6737 24.1243 13.5093 24.2887C13.3449 24.4531 13.1219 24.5455 12.8894 24.5455C12.6569 24.5455 12.434 24.4531 12.2696 24.2887C12.1052 24.1243 12.0128 23.9014 12.0128 23.6689V8.76687C12.0128 8.53438 12.1052 8.31142 12.2696 8.14703C12.434 7.98263 12.6569 7.89028 12.8894 7.89028Z" fill="black"/>
</svg>
