<svg width="29" height="29" viewBox="0 0 29 29" fill="none" xmlns="http://www.w3.org/2000/svg">
<g clip-path="url(#clip0_710_90031)">
<path d="M21.2938 0.256554C21.3752 0.174921 21.4719 0.110153 21.5784 0.065962C21.6849 0.0217706 21.7991 -0.000976563 21.9144 -0.000976562C22.0297 -0.000976562 22.1439 0.0217706 22.2504 0.065962C22.3568 0.110153 22.4536 0.174921 22.535 0.256554L27.7945 5.51609C27.8762 5.59752 27.9409 5.69425 27.9851 5.80075C28.0293 5.90724 28.0521 6.02141 28.0521 6.13671C28.0521 6.25202 28.0293 6.36618 27.9851 6.47268C27.9409 6.57918 27.8762 6.67591 27.7945 6.75734L10.2628 24.2891C10.1786 24.3727 10.0784 24.4383 9.96823 24.482L1.20234 27.9883C1.04304 28.0521 0.868528 28.0677 0.700439 28.0332C0.532351 27.9987 0.378079 27.9157 0.256747 27.7944C0.135416 27.673 0.0523618 27.5187 0.0178813 27.3507C-0.0165993 27.1826 -0.000989833 27.0081 0.0627744 26.8488L3.56913 18.0829C3.61283 17.9727 3.67844 17.8725 3.76198 17.7883L21.2938 0.256554ZM19.6475 4.38354L23.6676 8.40357L25.9344 6.13671L21.9144 2.11668L19.6475 4.38354ZM22.4281 9.64307L18.408 5.62303L7.01237 17.0187V17.5324H7.88896C8.12145 17.5324 8.34441 17.6247 8.5088 17.7891C8.67319 17.9535 8.76555 18.1765 8.76555 18.409V19.2855H9.64214C9.87462 19.2855 10.0976 19.3779 10.262 19.5423C10.4264 19.7067 10.5187 19.9297 10.5187 20.1621V21.0387H11.0324L22.4281 9.64307ZM5.3153 18.7158L5.12946 18.9016L2.4506 25.6005L9.1495 22.9216L9.33533 22.7358C9.16811 22.6733 9.02396 22.5613 8.92213 22.4147C8.82031 22.268 8.76568 22.0938 8.76555 21.9153V21.0387H7.88896C7.65648 21.0387 7.43351 20.9464 7.26912 20.782C7.10473 20.6176 7.01237 20.3946 7.01237 20.1621V19.2855H6.13578C5.95727 19.2854 5.78306 19.2308 5.63644 19.129C5.48982 19.0271 5.37777 18.883 5.3153 18.7158Z" fill="#212529"/>
</g>
<defs>
<clipPath id="clip0_710_90031">
<rect width="28.0508" height="28.0508" fill="white"/>
</clipPath>
</defs>
</svg>
