<svg width="129" height="46" viewBox="0 0 129 46" fill="none" xmlns="http://www.w3.org/2000/svg">
<path d="M9.8833 44.8265C4.84058 44.8265 0.754883 40.789 0.754883 35.8282V10.2999C0.754883 5.33909 4.85899 1.30164 9.8833 1.30164H118.412C123.455 1.30164 127.559 5.33909 127.559 10.2999V44.8084H9.8833V44.8265Z" fill="#00995C"/>
<path d="M118.412 2.06186C123.05 2.06186 126.804 5.75531 126.804 10.3178V44.1021H9.88298C5.24516 44.1021 1.49073 40.4086 1.49073 35.8461V10.3178C1.49073 5.75531 5.24516 2.06186 9.88298 2.06186H118.412ZM118.412 0.595337H9.88298C4.43538 0.595337 0 4.95868 0 10.3178V35.8461C0 41.2052 4.43538 45.5686 9.88298 45.5686H126.804H128.295V44.1021V10.3178C128.295 4.95868 123.859 0.595337 118.412 0.595337Z" fill="white"/>
<path fill-rule="evenodd" clip-rule="evenodd" d="M103.229 16.5096H107.682L114.4 25.2907H109.928L113.277 29.6721H107.682L104.351 25.2907H106.56L103.229 20.9092H106.56L103.229 16.5096Z" fill="white"/>
<path fill-rule="evenodd" clip-rule="evenodd" d="M103.228 16.5096H98.7562L92.0571 25.2907H96.5109L93.1798 29.6721H98.7562L102.106 25.2907H99.8604L103.228 20.9092H99.8789L103.228 16.5096Z" fill="white"/>
<path fill-rule="evenodd" clip-rule="evenodd" d="M18.6983 17.3971H13.9316V24.8564C13.9316 28.4594 16.6554 29.8716 20.1154 29.8716C23.8698 29.8716 26.3728 28.5499 26.3728 24.5849V17.3971H21.6982V24.6754C21.6982 25.8703 21.4221 26.7032 20.189 26.7032C19.0296 26.7032 18.6983 25.8341 18.6983 24.6754V17.3971Z" fill="white"/>
<path fill-rule="evenodd" clip-rule="evenodd" d="M27.5506 29.6724H32.0412V24.3857C32.0412 23.8787 32.0412 23.1726 32.851 23.1726C33.6424 23.1726 33.6424 23.8787 33.6424 24.3857V29.6724H38.133V23.3175C38.133 21.5251 37.2496 20.312 34.857 20.312C33.5872 20.312 32.3725 20.819 31.8204 22.1044H31.7836V20.5112H27.5322V29.6724H27.5506Z" fill="white"/>
<path fill-rule="evenodd" clip-rule="evenodd" d="M39.6973 29.6721H44.1879V20.5109H39.6973V29.6721ZM44.1879 16.5096H39.6973V19.5513H44.1879V16.5096Z" fill="white"/>
<path fill-rule="evenodd" clip-rule="evenodd" d="M45.6605 29.6724H50.1511V24.3857C50.1511 23.8787 50.1511 23.1726 50.9793 23.1726C51.7338 23.1726 51.7338 23.8787 51.7338 24.3857V29.6724H56.2612V24.3857C56.2612 23.8787 56.2612 23.1726 57.0158 23.1726C57.8256 23.1726 57.8256 23.8787 57.8256 24.3857V29.6724H62.3162V24.1865C62.3162 22.3941 62.3162 20.312 59.0402 20.312C57.9176 20.312 56.3717 20.819 56.0588 21.8872H56.022C55.6539 20.7827 54.3472 20.312 53.1141 20.312C51.6786 20.312 50.464 20.819 49.9302 22.1044H49.8934V20.5112H45.6421V29.6724H45.6605Z" fill="white"/>
<path fill-rule="evenodd" clip-rule="evenodd" d="M67.6351 24.2044C67.5799 23.4802 67.7823 22.412 68.8498 22.412C69.8436 22.412 69.9724 23.5164 69.9724 24.2044H67.6351ZM73.8557 26.1417V25.5985C73.8557 22.5025 72.5858 20.2937 68.9602 20.2937C65.2058 20.2937 63.1997 21.8507 63.1997 24.9105C63.1997 28.0789 65.2058 29.8713 68.9602 29.8713C70.5429 29.8713 71.96 29.6903 73.1563 29.3282V26.9745C72.457 27.3366 71.3343 27.5358 70.1196 27.5358C68.7945 27.5358 67.7271 27.2642 67.6351 26.1236H73.8557V26.1417Z" fill="white"/>
<path fill-rule="evenodd" clip-rule="evenodd" d="M86.0942 29.6721V16.5096H81.6036V21.7058H81.5668C80.8674 20.71 79.9656 20.2936 78.751 20.2936C75.9536 20.2936 74.8125 22.4662 74.8125 24.9467C74.8125 27.5719 75.8983 29.8713 78.9166 29.8713C80.3705 29.8713 81.2907 29.3643 81.8797 27.9883H81.9165V29.654H86.0942V29.6721ZM81.7324 25.0372C81.7324 25.9062 81.5852 26.9201 80.6466 26.9201C79.6528 26.9201 79.4871 25.9062 79.4871 24.9467C79.4871 23.9871 79.6344 23.0275 80.573 23.0275C81.5668 23.0456 81.7324 24.0052 81.7324 25.0372Z" fill="white"/>
<path fill-rule="evenodd" clip-rule="evenodd" d="M89.8302 31.8628V14.3008H89.0757V31.8628H89.8302Z" fill="white"/>
</svg>
